<?xml version="1.0" encoding="UTF-8"?>
<svg version="1.1" xmlns="http://www.w3.org/2000/svg" width="2048" height="2048">
<path d="M0 0 C2.53348947 -0.00435638 5.06697763 -0.00954258 7.60046387 -0.01548767 C13.72654497 -0.02741519 19.85256553 -0.03004083 25.97865594 -0.02768741 C30.96848161 -0.02589224 35.9582941 -0.02767932 40.94811821 -0.03191185 C42.0201868 -0.03280463 42.0201868 -0.03280463 43.11391334 -0.03371545 C44.56667944 -0.03492743 46.01944555 -0.03614156 47.47221165 -0.03735783 C61.04972348 -0.04819569 74.62721038 -0.04608919 88.20472359 -0.03997298 C100.56688654 -0.03481132 112.92897051 -0.04604617 125.29111785 -0.0650712 C138.04626581 -0.08454739 150.80137659 -0.09268833 163.55653948 -0.08894795 C170.69274429 -0.08705011 177.82888202 -0.08938277 184.96507454 -0.10366249 C191.68514033 -0.11697561 198.40502458 -0.11418501 205.12509918 -0.1012516 C207.57053877 -0.09891182 210.01598979 -0.10152527 212.46141624 -0.10987473 C232.71392977 -0.17395573 253.16662733 0.87966605 272.89428711 5.8371582 C273.90289795 6.08546387 274.91150879 6.33376953 275.95068359 6.58959961 C311.59047194 15.86250118 343.95888738 34.90194671 370.39428711 60.2746582 C370.95647949 60.80961914 371.51867187 61.34458008 372.09790039 61.89575195 C380.14799784 69.59256055 387.4230834 77.56699681 394.07202148 86.50366211 C395.39688636 88.27813954 396.74510498 90.03275565 398.09741211 91.78637695 C451.13647497 161.33724259 476.05243709 255.994673 499.73461914 491.5480957 C499.32036919 494.46322249 498.86871733 497.36877312 498.39428711 500.2746582 C498.25506836 501.16217773 498.11584961 502.04969727 497.97241211 502.96411133 C489.81787009 553.36371134 462.38900548 596.73048161 428.54663086 633.90356445 C427.15076605 635.44129574 425.76709614 636.99022051 424.39819336 638.55200195 C419.56284361 644.04547113 414.49516742 649.27913169 409.33178711 654.4621582 C408.67106201 655.12747559 408.01033691 655.79279297 407.32958984 656.47827148 C403.41962009 660.37613007 399.40452027 664.0893829 395.20703125 667.67626953 C393.3558911 669.30851392 391.62377196 671.01452857 389.89428711 672.7746582 C387.5736934 675.13439052 385.19723213 677.35587325 382.68725586 679.51293945 C378.42179993 683.22181855 374.3065924 687.07198851 370.20678711 690.9621582 C364.55013009 696.30801667 358.88166428 701.63839022 353.14208984 706.89526367 C350.35306212 709.45227145 347.59375453 712.03407747 344.86694336 714.6574707 C330.18944134 728.71319667 314.19227458 737.87489153 293.39428711 738.2746582 C275.27297313 737.39897341 258.93068369 730.49826589 246.39428711 717.2746582 C233.48195479 701.98373835 228.91680979 684.96080099 230.39428711 665.2746582 C232.65566138 646.75583648 243.38438187 631.52315438 257.49975586 619.88012695 C259.58498882 618.11305324 261.48050867 616.22559738 263.39428711 614.2746582 C266.59458233 611.02435837 269.93653287 608.02741575 273.39428711 605.0559082 C275.47765789 603.2004061 277.43709918 601.2624272 279.39428711 599.2746582 C281.95418845 596.67483637 284.56208251 594.21197423 287.33178711 591.8371582 C291.06045584 588.63385963 294.50368008 585.20805314 297.92553711 581.6809082 C299.84270642 579.81227482 301.77039291 578.08552287 303.80444336 576.3527832 C309.61923743 571.30327183 315.0237238 565.83124047 320.46630859 560.38793945 C322.31906179 558.53736853 324.17967417 556.69495744 326.04077148 554.8527832 C332.95463172 547.9719313 339.41090711 540.99291099 345.39428711 533.2746582 C345.91369873 532.61981445 346.43311035 531.9649707 346.96826172 531.2902832 C378.41239544 491.30950474 374.72713689 442.33097253 369.03588867 394.39575195 C365.92371072 369.0930658 360.79583481 344.16730243 354.89562988 319.38153076 C354.41067436 317.34352497 353.93018113 315.30450438 353.44995117 313.26538086 C340.09660923 257.16014892 319.0753644 175.51974028 267.50366211 142.70825195 C251.54618128 132.98058993 234.66081112 129.1096267 216.10505676 129.14094543 C214.60763342 129.1375471 214.60763342 129.1375471 213.07995909 129.13408011 C209.75479149 129.12778022 206.42966507 129.12856689 203.10449219 129.12939453 C200.71211698 129.12640052 198.31974226 129.12299743 195.92736816 129.11921692 C190.11457916 129.11131206 184.30180252 129.1081633 178.4890084 129.10760454 C173.75965066 129.10712804 169.03029625 129.1050666 164.30093956 129.10190392 C150.86733603 129.09310438 137.43374046 129.08848338 124.00013403 129.08923439 C123.27708687 129.08927435 122.55403971 129.0893143 121.80908203 129.08935547 C121.08514327 129.08939635 120.36120451 129.08943723 119.61532822 129.08947935 C107.89183223 129.08988551 96.1683684 129.08032172 84.44488171 129.0662171 C72.38277454 129.0518206 60.32068301 129.04494873 48.25856704 129.04581088 C41.49650474 129.04614174 34.73447616 129.04344342 27.97242165 129.03263283 C21.60876093 129.02291704 15.24517117 129.0228965 8.88150787 129.03014946 C6.55400933 129.03119101 4.22650629 129.02885809 1.89901543 129.022789 C-28.61580026 128.94841191 -54.61018482 134.4704749 -77.05493164 156.70043945 C-78.99095512 158.83559677 -80.81590115 161.01628725 -82.60571289 163.2746582 C-83.11102539 163.87149414 -83.61633789 164.46833008 -84.13696289 165.08325195 C-92.17498485 175.02389081 -97.5627112 186.93073042 -100.60571289 199.2746582 C-100.87049438 200.31686523 -100.87049438 200.31686523 -101.140625 201.38012695 C-101.78566079 205.39458589 -101.7478966 209.33219404 -101.73852539 213.3918457 C-101.73998062 214.29934067 -101.74143585 215.20683563 -101.74293518 216.14183044 C-101.74520078 219.14448042 -101.73883348 222.1470192 -101.73071289 225.1496582 C-101.72788803 226.71144302 -101.72788803 226.71144302 -101.7250061 228.30477905 C-101.51643164 327.54186601 -93.41283615 425.97540119 -29.83959961 670.67456055 C-28.82399579 673.63777661 -27.82175551 676.60473555 -26.82836914 679.57543945 C-17.37660872 707.5513462 -6.26048951 735.15445601 5.39428711 762.2746582 C5.68049927 762.94076111 5.96671143 763.60686401 6.26159668 764.29315186 C24.65435025 807.00693284 45.05295344 849.03493894 68.39428711 889.2746582 C69.06934027 890.44192635 69.74430401 891.60924621 70.41918945 892.77661133 C78.67130203 907.03747465 87.05525494 921.18812296 95.97045898 935.04760742 C97.46555004 937.38612262 98.93999573 939.7366509 100.40991211 942.09106445 C106.36603519 951.62353314 112.52153738 960.9696627 118.94946289 970.18969727 C120.48440673 972.40470577 122.00177748 974.63095404 123.51538086 976.8605957 C134.71500172 993.35692265 146.413212 1009.40721932 158.54272461 1025.23168945 C161.43387958 1029.00645099 164.28945685 1032.80515297 167.12329102 1036.62304688 C173.17281534 1044.76975313 179.48919551 1052.6694161 185.93823242 1060.50268555 C187.2293206 1062.07389916 188.51167295 1063.65228212 189.79272461 1065.23168945 C197.99646348 1075.34568521 206.47998741 1085.20375998 215.24194336 1094.8371582 C217.58094064 1097.48604079 219.8022937 1100.21054413 222.01928711 1102.9621582 C225.08086436 1106.74660786 228.23992212 1110.23953834 231.73413086 1113.62231445 C233.43812937 1115.31829414 235.01142794 1117.07955516 236.58178711 1118.8996582 C243.86385846 1127.32722392 251.475051 1135.43686772 259.40600586 1143.25512695 C261.20152895 1145.07887044 262.86736241 1146.94662318 264.51928711 1148.8996582 C272.05251372 1157.66783999 280.47170838 1165.95999578 289.30834961 1173.4074707 C292.85072455 1176.57836063 296.15504567 1179.99463233 299.47680664 1183.39428711 C302.95924692 1186.93291321 306.58543814 1190.23011575 310.34155273 1193.47583008 C314.4662272 1197.09031646 318.41333027 1200.89816588 322.39428711 1204.66918945 C326.9677476 1208.98360628 331.63356868 1213.16803797 336.39428711 1217.2746582 C337.25159424 1218.01522461 337.25159424 1218.01522461 338.1262207 1218.77075195 C339.77548409 1220.19177559 341.42785187 1221.60907567 343.08178711 1223.0246582 C343.67701172 1223.53416016 344.27223633 1224.04366211 344.88549805 1224.56860352 C346.72087897 1226.13832445 348.55734449 1227.70676522 350.39428711 1229.2746582 C350.96937012 1229.76579102 351.54445313 1230.25692383 352.13696289 1230.76293945 C358.24907018 1235.97729256 364.39204158 1241.14162989 370.69116211 1246.13012695 C372.73074351 1247.74823416 374.76074864 1249.37574842 376.78491211 1251.01293945 C385.181708 1257.79312047 393.72360706 1264.3438358 402.38696289 1270.77905273 C404.37280802 1272.25865469 406.35151644 1273.74726564 408.32788086 1275.23950195 C455.35144895 1310.73659692 505.09674303 1342.56805888 556.60058594 1371.14624023 C559.56673659 1372.80166904 562.5142005 1374.48814441 565.45947266 1376.18041992 C578.22273387 1383.49435037 591.13994584 1390.37058394 604.31884766 1396.9050293 C607.3315701 1398.39955055 610.33877984 1399.90474085 613.34545898 1401.41137695 C632.33771955 1410.89440687 651.58478002 1419.83427727 671.14428711 1428.0871582 C671.81962494 1428.37291718 672.49496277 1428.65867615 673.19076538 1428.95309448 C690.11253636 1436.10034277 707.20537951 1442.7988175 724.39428711 1449.2746582 C725.46688782 1449.67880951 725.46688782 1449.67880951 726.56115723 1450.09112549 C816.99827924 1484.08318743 910.84358173 1507.30518441 1146.84710693 1534.14898682 C1149.11964466 1534.26110804 1151.39198784 1534.37646588 1153.66430664 1534.49291992 C1167.77648592 1535.19452767 1181.89135518 1535.38376239 1196.01898193 1535.44888306 C1197.82047086 1535.45757847 1199.62194915 1535.46901126 1201.42340088 1535.48348999 C1215.0777557 1535.58080739 1228.35029077 1535.18743236 1241.39428711 1530.6496582 C1242.14991943 1530.38950928 1242.90555176 1530.12936035 1243.68408203 1529.86132812 C1266.82318071 1521.54003497 1284.79932293 1504.31245859 1295.51928711 1482.41137695 C1303.78274894 1464.65554914 1303.68924711 1446.30083391 1303.65307617 1427.1418457 C1303.65579028 1424.71917618 1303.65935356 1422.29650748 1303.66369629 1419.87384033 C1303.67183274 1414.00624328 1303.67069241 1408.13869334 1303.66487101 1402.27109766 C1303.66033323 1397.49752032 1303.65975071 1392.7239573 1303.66191864 1387.95037842 C1303.66222511 1387.26802781 1303.66253157 1386.5856772 1303.66284733 1385.8826493 C1303.66348685 1384.49597501 1303.66413528 1383.10930073 1303.66479251 1381.72262645 C1303.67048008 1368.7544548 1303.66396269 1355.78631155 1303.65319178 1342.81814456 C1303.6442577 1331.71834845 1303.64581018 1320.61859419 1303.6550293 1309.51879883 C1303.66575983 1296.59342067 1303.66993091 1283.66806731 1303.66380477 1270.74268532 C1303.66316775 1269.36143621 1303.662539 1267.9801871 1303.66191864 1266.59893799 C1303.66161009 1265.91953844 1303.66130154 1265.24013889 1303.66098364 1264.54015148 C1303.65926503 1259.77861293 1303.6621537 1255.01709028 1303.66687775 1250.2555542 C1303.67310983 1243.83355259 1303.66860092 1237.41161107 1303.65708923 1230.98961639 C1303.65445826 1228.64115275 1303.65518082 1226.29268243 1303.65961456 1223.9442215 C1303.81528091 1201.97296305 1303.81528091 1201.97296305 1298.76928711 1180.7121582 C1298.38123901 1179.64747314 1298.38123901 1179.64747314 1297.98535156 1178.5612793 C1289.14308536 1155.38970034 1271.05638988 1139.71182035 1250.39428711 1127.2746582 C1249.70512207 1126.85716309 1249.01595703 1126.43966797 1248.3059082 1126.00952148 C1207.15135142 1101.37151682 1158.80985771 1086.51874292 1112.39428711 1075.2746582 C1111.40709686 1075.03422791 1111.40709686 1075.03422791 1110.39996338 1074.78894043 C1078.54513748 1067.05740695 1046.03854051 1062.1441058 1013.39428711 1059.2746582 C1012.24404053 1059.16879395 1012.24404053 1059.16879395 1011.07055664 1059.06079102 C968.79344836 1055.30679831 930.51069109 1058.65226142 896.39428711 1086.2746582 C893.60501461 1088.71246741 890.86713593 1091.19152581 888.15991211 1093.7199707 C886.09802125 1095.6245987 884.01666673 1097.45147014 881.88256836 1099.27075195 C876.36327256 1104.08211266 871.23226308 1109.28729123 866.06689453 1114.47167969 C864.33534011 1116.2085942 862.59850352 1117.9400971 860.86108398 1119.67114258 C855.66929498 1124.86018917 850.53328472 1130.04166193 845.80029297 1135.66040039 C844.28696609 1137.39787518 842.68063824 1138.99155843 841.01928711 1140.5871582 C838.1704165 1143.37917774 835.68909116 1146.34026951 833.20678711 1149.4621582 C829.31631039 1154.30364034 825.13519657 1158.65753009 820.70507812 1162.99291992 C817.88361232 1165.7605185 815.19596014 1168.56942617 812.64428711 1171.5871582 C809.76543463 1174.97156527 806.61096676 1177.83003614 803.21850586 1180.69262695 C801.23876386 1182.35109551 801.23876386 1182.35109551 799.08178711 1184.7746582 C787.20563019 1195.82224603 771.482096 1200.8060985 755.46069336 1200.45825195 C735.10231226 1199.23934251 718.75477699 1188.96666214 701.90600586 1178.4387207 C699.45218072 1176.91285964 696.9747428 1175.43722797 694.47631836 1173.9855957 C669.39440056 1159.33836111 645.19334775 1142.90986606 621.39428711 1126.2746582 C620.70286621 1125.79351563 620.01144531 1125.31237305 619.29907227 1124.81665039 C602.31705749 1112.98787907 585.71997244 1100.67325979 569.44750977 1087.88696289 C567.54092048 1086.38980289 565.63053414 1084.89767436 563.71850586 1083.4074707 C547.11766718 1070.44998135 530.94208488 1057.01064652 515.05908203 1043.18530273 C511.96315077 1040.49176676 508.85731354 1037.81270521 505.71850586 1035.16918945 C499.12309693 1029.60490005 492.87150005 1023.88756356 486.83569336 1017.7199707 C484.77224592 1015.65322175 482.67992348 1013.72705237 480.45678711 1011.8371582 C465.87262456 999.22949407 453.09377304 984.73422069 451.14428711 964.70629883 C450.0484694 945.78974557 453.67800631 929.38307079 466.22241211 914.64575195 C478.61518703 901.11622969 493.2549128 893.54079464 511.66381836 892.0012207 C534.52570056 891.28246745 550.27635384 901.26830653 566.39428711 916.2746582 C568.43311375 918.15275588 570.47616427 920.02623632 572.51928711 921.8996582 C573.03370361 922.37193848 573.54812012 922.84421875 574.078125 923.33081055 C579.14378304 927.97561929 584.30027066 932.49833031 589.53881836 936.9465332 C590.72013084 937.95136205 591.90110866 938.95658444 593.08178711 939.9621582 C593.98646729 940.73245361 593.98646729 940.73245361 594.90942383 941.51831055 C599.00323087 945.02558116 602.96873516 948.6435461 606.89428711 952.3371582 C612.83872286 957.9044845 619.12874621 962.90690816 625.58081055 967.8684082 C628.71558803 970.29925343 631.80264013 972.78935749 634.89428711 975.2746582 C642.02283893 980.99039368 649.19059959 986.6539466 656.39428711 992.2746582 C656.93794922 992.6998877 657.48161133 993.12511719 658.04174805 993.56323242 C669.33416986 1002.38352946 680.97621311 1010.65952029 692.80200195 1018.74707031 C696.8588955 1021.52326956 700.89893718 1024.32184678 704.92553711 1027.1418457 C713.84121398 1033.3837853 722.75565764 1039.61172846 731.89428711 1045.5246582 C732.88900024 1046.16854492 732.88900024 1046.16854492 733.90380859 1046.82543945 C737.99519955 1049.44595192 742.15843244 1051.89471924 746.39428711 1054.2746582 C748.76987395 1051.75437737 751.14471854 1049.23339845 753.51928711 1046.7121582 C754.23979248 1045.94726074 754.96029785 1045.18236328 755.70263672 1044.39428711 C759.25348258 1040.62192701 762.7992764 1036.84518426 766.32788086 1033.05200195 C766.94066895 1032.39337158 767.55345703 1031.73474121 768.18481445 1031.05615234 C769.32822169 1029.82594194 770.47055459 1028.59473172 771.61157227 1027.36230469 C776.55456521 1022.044248 781.54532651 1016.79368664 787.08178711 1012.0871582 C790.6397164 1009.03063594 793.92517417 1005.74607764 797.20678711 1002.3996582 C802.62030485 996.92184489 808.29335487 991.98650368 814.39428711 987.2746582 C815.25981201 986.60249268 815.25981201 986.60249268 816.14282227 985.91674805 C864.20224749 948.7301543 915.92359543 929.00181712 977.08178711 929.0871582 C977.95422058 929.08809479 978.82665405 929.08903137 979.7255249 929.08999634 C1010.30000837 929.16041568 1040.16269815 931.76052748 1070.39428711 936.2746582 C1071.06312927 936.37391602 1071.73197144 936.47317383 1072.42108154 936.57543945 C1140.74179461 946.75786376 1209.44815267 964.47843623 1272.39428711 993.2746582 C1273.47629395 993.76820801 1274.55830078 994.26175781 1275.6730957 994.77026367 C1309.99276397 1010.54653003 1340.87067445 1030.30479787 1368.39428711 1056.2746582 C1369.67819336 1057.47735352 1369.67819336 1057.47735352 1370.98803711 1058.7043457 C1377.869669 1065.34642712 1383.68017728 1072.63391257 1389.39428711 1080.2746582 C1389.83305176 1080.85795898 1390.27181641 1081.44125977 1390.72387695 1082.04223633 C1421.83084409 1123.64214009 1432.94465301 1172.16881792 1432.76660156 1223.37133789 C1432.76903767 1225.8729416 1432.77276485 1228.37454432 1432.77766418 1230.87614441 C1432.78600378 1236.89636068 1432.78066353 1242.9164141 1432.76840124 1248.93661132 C1432.75460408 1255.97934892 1432.75643437 1263.02205928 1432.75853457 1270.06480697 C1432.76170618 1282.64633804 1432.75016107 1295.22781203 1432.73046875 1307.80932617 C1432.71145627 1319.96005998 1432.70438778 1332.11072699 1432.70996094 1344.26147461 C1432.7160453 1357.56568982 1432.71579455 1370.86987589 1432.7044751 1384.17408872 C1432.70326809 1385.59770028 1432.7020621 1387.02131184 1432.70085716 1388.4449234 C1432.70025362 1389.14497009 1432.69965009 1389.84501678 1432.69902826 1390.56627701 C1432.69518168 1395.45189021 1432.69552986 1400.33749241 1432.69744301 1405.22310638 C1432.69981066 1411.81928663 1432.69109432 1418.41539467 1432.67538261 1425.01156044 C1432.67118267 1427.41514296 1432.67025981 1429.8187341 1432.67307281 1432.22231865 C1432.69142361 1450.72432175 1432.18955512 1469.20721111 1428.14428711 1487.3371582 C1427.92740234 1488.33336182 1427.71051758 1489.32956543 1427.48706055 1490.35595703 C1418.31925668 1531.31439232 1399.25444778 1565.92837356 1370.39428711 1596.2746582 C1369.85642578 1596.84120117 1369.31856445 1597.40774414 1368.7644043 1597.99145508 C1360.55011013 1606.58063615 1351.96682061 1614.23230977 1342.39428711 1621.2746582 C1341.13745117 1622.20665039 1341.13745117 1622.20665039 1339.85522461 1623.1574707 C1337.4027057 1624.92098764 1334.91273475 1626.60659548 1332.39428711 1628.2746582 C1331.8623877 1628.63350098 1331.33048828 1628.99234375 1330.7824707 1629.36206055 C1289.79244884 1656.84491602 1243.36815526 1664.96799942 1194.76928711 1664.6496582 C1193.51570404 1664.64567017 1192.26212097 1664.64168213 1190.97055054 1664.63757324 C1146.67737417 1664.47494914 1102.47419262 1661.47149259 1058.39428711 1657.2746582 C1057.45252625 1657.18591431 1056.51076538 1657.09717041 1055.54046631 1657.0057373 C1023.62749535 1653.98739596 992.02080239 1649.47121716 960.39428711 1644.2746582 C958.89321411 1644.02942413 958.89321411 1644.02942413 957.36181641 1643.77923584 C926.85822044 1638.79164836 896.59342351 1632.853463 866.39428711 1626.2746582 C865.66735657 1626.11715088 864.94042603 1625.95964355 864.19146729 1625.79736328 C823.00918338 1616.86743307 782.46642301 1605.25076244 742.39428711 1592.2746582 C741.61031555 1592.02157898 740.82634399 1591.76849976 740.01861572 1591.50775146 C687.2593026 1574.4692973 635.72533895 1553.94652546 585.39428711 1530.7121582 C584.19941681 1530.16103867 584.19941681 1530.16103867 582.98040771 1529.5987854 C572.96760304 1524.97030829 563.0597938 1520.16283509 553.21374512 1515.19021606 C550.45576656 1513.80239126 547.68667794 1512.43730072 544.91772461 1511.0715332 C531.90998227 1504.63577356 519.07402269 1497.96837244 506.38500977 1490.92602539 C503.11920492 1489.12276792 499.84155733 1487.34230942 496.56225586 1485.5637207 C480.61595031 1476.8949301 465.00869473 1467.7750149 449.56860352 1458.23510742 C446.64424693 1456.42903271 443.71391998 1454.63319642 440.78100586 1452.84106445 C427.82174988 1444.90143316 415.07728595 1436.64725757 402.39428711 1428.2746582 C401.36239258 1427.5940332 400.33049805 1426.9134082 399.26733398 1426.2121582 C388.07607894 1418.82027564 376.94653519 1411.37863059 366.09448242 1403.49633789 C364.24545555 1402.16771491 362.3806588 1400.86382385 360.51147461 1399.5637207 C349.67124219 1392.01505164 339.16341457 1384.07522595 328.68823242 1376.02954102 C325.79516115 1373.81632302 322.87921782 1371.63644665 319.95678711 1369.4621582 C310.57781278 1362.447968 301.41325322 1355.16194889 292.37084961 1347.7199707 C288.7236702 1344.72373145 285.05918291 1341.74917798 281.39428711 1338.7746582 C280.01664143 1337.65491761 278.63903655 1336.53512681 277.26147461 1335.4152832 C274.93658665 1333.52581436 272.6089968 1331.63984208 270.27709961 1329.7590332 C264.95231144 1325.44489888 259.79011175 1321.00145847 254.72241211 1316.38793945 C252.65496402 1314.51127936 250.56542107 1312.66721247 248.45678711 1310.8371582 C244.25779928 1307.18106981 240.15283651 1303.42459307 236.04272461 1299.66918945 C233.89605034 1297.72831729 231.72363156 1295.83631603 229.51928711 1293.9621582 C225.23184101 1290.24813597 221.27502609 1286.21089141 217.31274414 1282.15625 C213.83836995 1278.62531623 210.2210262 1275.33493253 206.47387695 1272.09594727 C202.88514499 1268.95296295 199.42413801 1265.67529892 195.95678711 1262.3996582 C195.21251465 1261.69711914 194.46824219 1260.99458008 193.70141602 1260.27075195 C180.68825383 1247.95477427 180.68825383 1247.95477427 175.27709961 1241.6496582 C170.89347469 1236.61181312 166.14945404 1231.95885249 161.39428711 1227.2746582 C156.09108566 1222.05060901 150.88575075 1216.8259583 146.03881836 1211.1730957 C143.25028664 1207.95403058 140.31483166 1204.87354119 137.39428711 1201.7746582 C132.62787162 1196.68877954 127.916848 1191.57997002 123.39428711 1186.2746582 C121.43699389 1183.9821015 119.47828341 1181.69075967 117.51928711 1179.3996582 C116.99778076 1178.78856201 116.47627441 1178.17746582 115.93896484 1177.54785156 C112.96055645 1174.06738587 109.93215318 1170.64776743 106.83178711 1167.2746582 C102.85996868 1162.90207971 99.23095444 1158.31727564 95.61621094 1153.65087891 C92.51673308 1149.6623078 89.31525607 1145.78925379 86.01928711 1141.9621582 C80.11754892 1135.07381683 74.65034563 1127.87658908 69.18481445 1120.64038086 C67.3096999 1118.1628979 65.42548368 1115.69257359 63.53881836 1113.22387695 C45.43291856 1089.53143133 27.8948557 1065.60714389 11.17993164 1040.91137695 C10.05024215 1039.24325465 8.91864793 1037.57641931 7.78442383 1035.91137695 C1.00723075 1025.96016577 -5.39143836 1015.82542226 -11.6081543 1005.5144043 C-14.67100321 1000.43623302 -17.77931405 995.41322281 -21.04321289 990.4621582 C-26.93281297 981.38869682 -32.21939663 971.95544437 -37.57963562 962.5632019 C-39.90285015 958.49450513 -42.24786666 954.43897286 -44.60180664 950.38793945 C-53.53416529 934.96744327 -61.88746947 919.31818579 -69.97924805 903.44213867 C-71.78040722 899.93444741 -73.62723076 896.45376315 -75.48950195 892.97827148 C-88.47700172 868.69799542 -99.67826874 843.55051494 -110.70269775 818.3359375 C-111.54429764 816.41484854 -112.39005749 814.49567247 -113.23803711 812.57739258 C-122.4295066 791.75559918 -130.61563828 770.58020696 -138.60571289 749.2746582 C-138.93289307 748.40437988 -139.26007324 747.53410156 -139.59716797 746.63745117 C-174.57027838 653.55319214 -200.13474031 556.59065812 -230.05154419 279.62902832 C-230.31227301 265.58933233 -230.61780198 251.55617673 -231.16821289 237.5246582 C-231.31897972 233.44148877 -231.46430228 229.35816155 -231.60571289 225.2746582 C-231.63584473 224.45368652 -231.66597656 223.63271484 -231.69702148 222.78686523 C-233.60542328 165.01212802 -209.05946941 109.51752425 -170.13696289 67.6965332 C-163.41453302 60.62397678 -156.26799047 54.32442662 -148.60571289 48.2746582 C-147.86579102 47.64430664 -147.12586914 47.01395508 -146.36352539 46.36450195 C-105.30303362 11.76855128 -52.34000582 -0.05998451 0 0 Z " fill="#000000" transform="translate(423.605712890625,191.725341796875)"/>
<path d="M0 0 C12.62456451 13.3459682 18.86862213 30.49611725 18.55859375 48.71484375 C16.75091311 79.5504251 -8.19755428 99.49736611 -28.58278561 119.78557348 C-31.69337667 122.88352088 -34.79816964 125.98726905 -37.90362549 129.09036255 C-43.76409026 134.94465211 -49.62962654 140.79383211 -55.49707913 146.64111722 C-62.18563894 153.30719356 -68.86840801 159.9790626 -75.5507369 166.65138412 C-89.27746686 180.35730193 -103.0113219 194.05605942 -116.75 207.75 C-115.17156646 207.75089563 -115.17156646 207.75089563 -113.56124538 207.75180936 C-67.16741125 207.77839594 -20.77358384 207.80993887 25.620224 207.86663818 C26.32302191 207.86749569 27.02581983 207.8683532 27.74991465 207.8692367 C43.02499602 207.88790397 58.30007614 207.90745666 73.5751552 207.92792095 C81.06646068 207.9379518 88.5577664 207.94778707 96.04907227 207.95751953 C96.79453223 207.95849134 97.53999219 207.95946314 98.30804184 207.9604644 C122.45409796 207.99185039 146.60014291 208.01033112 170.74621589 208.02209247 C195.56727826 208.03425095 220.38829402 208.05948297 245.20932534 208.10107614 C248.71816267 208.1069499 252.22700022 208.1126748 255.73583794 208.11830902 C256.42640183 208.11942248 257.11696573 208.12053594 257.8284558 208.12168314 C268.92770898 208.13919713 280.0269262 208.14300115 291.12619134 208.14162921 C302.29495895 208.14054304 313.46363546 208.15433774 324.63237495 208.18216428 C330.67970658 208.19679956 336.72686559 208.20502213 342.77421188 208.19580269 C348.31714597 208.18749542 353.85973373 208.19772682 359.40261655 208.22233662 C361.40151667 208.22800462 363.40044979 208.22702917 365.3993398 208.21851245 C386.41417248 208.13668798 404.07813439 212.00868455 419.8125 227.1484375 C433.00482822 241.22871089 438.09062285 258.17100748 437.5234375 277.140625 C436.66995318 294.42191899 429.01243947 310.13715431 416.25 321.75 C400.02206022 335.36563728 383.38294601 337.05079341 363.17941284 337.0284729 C361.12075428 337.033479 359.06209768 337.03935571 357.00344384 337.04602563 C351.35944504 337.06180159 345.71549607 337.065255 340.07147789 337.06667423 C333.98023948 337.07037246 327.88902827 337.08553007 321.79780579 337.09928894 C311.24864917 337.12155226 300.6994996 337.1366404 290.15032578 337.14665604 C279.08913022 337.15718798 268.02795263 337.17183064 256.96677017 337.19193649 C256.27844322 337.19318536 255.59011627 337.19443423 254.88093092 337.19572094 C251.38511808 337.20208489 247.88930537 337.20852202 244.39349271 337.21498732 C219.64710346 337.26062277 194.90070838 337.29708208 170.15429688 337.328125 C146.11685329 337.35829961 122.07942156 337.3926431 98.04199219 337.43261719 C97.30076166 337.43384819 96.55953113 337.43507919 95.79583908 337.4363475 C88.35194538 337.44871459 80.90805183 337.4611663 73.46415838 337.47367998 C58.30074221 337.49916878 43.13732513 337.52409294 27.97390747 337.54867554 C27.27675238 337.54980645 26.57959728 337.55093736 25.86131627 337.55210253 C-20.67577547 337.62752922 -67.21288639 337.68975324 -113.75 337.75 C-109.09041149 342.43488805 -104.4269506 347.11589493 -99.76074219 351.79418945 C-98.17292701 353.3870417 -96.58600939 354.98078918 -95 356.57543945 C-92.72369489 358.86383743 -90.4442097 361.14902479 -88.1640625 363.43359375 C-87.45255035 364.15026718 -86.74103821 364.86694061 -86.00796509 365.60533142 C-85.34743134 366.2659407 -84.68689758 366.92654999 -84.00634766 367.60717773 C-83.42454742 368.19119858 -82.84274719 368.77521942 -82.24331665 369.37693787 C-80.77807111 370.85104122 -80.77807111 370.85104122 -78.75 371.75 C-78.75 372.41 -78.75 373.07 -78.75 373.75 C-77.76 374.08 -76.77 374.41 -75.75 374.75 C-74.27734375 376.28125 -74.27734375 376.28125 -72.6875 378.25 C-69.89105477 381.5618917 -66.94478567 384.45256394 -63.6875 387.3125 C-59.62790331 390.87777745 -56.203258 394.6060904 -52.75 398.75 C-52.09 399.08 -51.43 399.41 -50.75 399.75 C-50.75 400.41 -50.75 401.07 -50.75 401.75 C-50.18729904 401.98869308 -49.62459808 402.22738617 -49.04484558 402.47331238 C-46.24370134 404.03166829 -44.31093399 405.91980764 -42.0324707 408.17700195 C-40.63500359 409.55532951 -40.63500359 409.55532951 -39.20930481 410.96150208 C-38.19772453 411.97002164 -37.18656084 412.97895921 -36.17578125 413.98828125 C-35.1270305 415.03059586 -34.07813378 416.07276362 -33.02909851 417.11479187 C-30.82742123 419.30449315 -28.62991862 421.49829051 -26.43481445 423.69458008 C-23.65252803 426.47706796 -20.85684118 429.24563471 -18.05720234 432.01064777 C-15.88203124 434.16330359 -13.71629248 436.32527219 -11.55287743 438.48973656 C-10.52809493 439.5121929 -9.50014806 440.53148974 -8.46871376 441.54723549 C6.86216025 456.66689498 17.77681519 473.58656224 18.625 495.75 C17.93344716 514.61053192 10.55407951 530.95761557 -2.8125 544.0625 C-15.84126629 555.235213 -31.98897771 560.53910147 -49.109375 560.09765625 C-73.27025889 557.79044738 -88.94635757 543.86949098 -105.39135742 527.36743164 C-106.72260074 526.03890429 -108.05426784 524.71080149 -109.38632202 523.38308716 C-112.97079399 519.80766145 -116.5489977 516.22602569 -120.12576079 512.64289021 C-123.87700177 508.88655831 -127.63315088 505.13513926 -131.38850403 501.38291931 C-137.68195293 495.09309703 -143.97119874 488.79909524 -150.25805664 482.50268555 C-157.53275776 475.21705976 -164.81469326 467.93872418 -172.10034484 460.66405016 C-178.36321649 454.41023789 -184.62220337 448.15255769 -190.87792474 441.89159292 C-194.61147093 438.15492506 -198.34636425 434.41963066 -202.0847683 430.68782234 C-205.59004514 427.18830016 -209.09043665 423.68396528 -212.58703232 420.17576981 C-213.87372599 418.88642126 -215.16214381 417.59879079 -216.45236015 416.3129673 C-218.20585318 414.56489757 -219.95313522 412.81085335 -221.69889832 411.05506897 C-222.21667302 410.54175571 -222.73444772 410.02844245 -223.26791257 409.49957424 C-226.75 405.97830278 -226.75 405.97830278 -226.75 403.75 C-227.41 403.75 -228.07 403.75 -228.75 403.75 C-228.75 403.09 -228.75 402.43 -228.75 401.75 C-230.07 401.09 -231.39 400.43 -232.75 399.75 C-232.75 399.09 -232.75 398.43 -232.75 397.75 C-233.54664063 397.440625 -233.54664063 397.440625 -234.359375 397.125 C-237.75773436 395.17038808 -240.26055928 392.52876283 -243 389.75 C-243.55429688 389.2034375 -244.10859375 388.656875 -244.6796875 388.09375 C-248.75 384.0033867 -248.75 384.0033867 -248.75 381.75 C-249.34425781 381.49476563 -249.93851563 381.23953125 -250.55078125 380.9765625 C-252.97806028 379.62280474 -254.19979183 378.2789 -255.9375 376.125 C-259.30393827 372.11454745 -263.01936677 368.77300147 -267.02734375 365.4140625 C-267.88005859 364.59035156 -267.88005859 364.59035156 -268.75 363.75 C-268.75 363.09 -268.75 362.43 -268.75 361.75 C-269.60851563 361.37875 -269.60851563 361.37875 -270.484375 361 C-273.10010611 359.55683801 -274.89773456 357.86783778 -277 355.75 C-277.70640625 355.04875 -278.4128125 354.3475 -279.140625 353.625 C-280.75 351.75 -280.75 351.75 -280.75 349.75 C-282.07 349.09 -283.39 348.43 -284.75 347.75 C-284.75 347.09 -284.75 346.43 -284.75 345.75 C-285.61625 345.37875 -285.61625 345.37875 -286.5 345 C-289.07939979 343.56700012 -290.81121592 341.96575324 -292.75 339.75 C-292.75 339.09 -292.75 338.43 -292.75 337.75 C-293.41 337.75 -294.07 337.75 -294.75 337.75 C-294.75 337.09 -294.75 336.43 -294.75 335.75 C-295.41 335.75 -296.07 335.75 -296.75 335.75 C-296.75 335.09 -296.75 334.43 -296.75 333.75 C-297.41 333.75 -298.07 333.75 -298.75 333.75 C-298.75 333.09 -298.75 332.43 -298.75 331.75 C-299.41 331.75 -300.07 331.75 -300.75 331.75 C-300.75 331.09 -300.75 330.43 -300.75 329.75 C-301.41 329.75 -302.07 329.75 -302.75 329.75 C-302.75 329.09 -302.75 328.43 -302.75 327.75 C-303.41 327.75 -304.07 327.75 -304.75 327.75 C-304.75 327.09 -304.75 326.43 -304.75 325.75 C-305.31976562 325.5128125 -305.88953125 325.275625 -306.4765625 325.03125 C-318.15023432 318.45227344 -325.80279198 302.10980663 -329.32299805 289.73583984 C-333.39551137 273.2680109 -331.35118879 255.7492319 -324.125 240.5625 C-323.83109375 239.93303467 -323.5371875 239.30356934 -323.234375 238.6550293 C-318.13221157 228.64384836 -308.95703539 220.8072863 -301.1061554 212.94552612 C-300.17729356 212.01157646 -299.24843171 211.0776268 -298.29142255 210.11537564 C-295.74143461 207.55164935 -293.18843235 204.9909444 -290.63483441 202.4308145 C-288.43813346 200.22768938 -286.24325679 198.02275117 -284.04838476 195.8178042 C-276.82820623 188.56451074 -269.60230738 181.31693082 -262.37476066 174.07098025 C-260.4913285 172.18274253 -258.60798466 170.29441677 -256.72465873 168.40607309 C-245.00407252 156.65452784 -233.28133239 144.9051339 -221.5536623 133.16065788 C-218.84507124 130.44811808 -216.1365074 127.73555111 -213.42797852 125.02294922 C-212.75488021 124.34884255 -212.0817819 123.67473588 -211.38828667 122.98020174 C-200.479605 112.05450474 -189.58303817 101.11680604 -178.69128654 90.17423426 C-167.48566488 78.91676205 -156.26867336 67.6707179 -145.04071969 56.43551838 C-138.74607457 50.13622299 -132.45651114 43.83203192 -126.17980385 37.51485825 C-120.83667907 32.13732468 -115.4833528 26.77021233 -110.11668811 21.41616665 C-107.38322363 18.68850167 -104.65471371 15.9563463 -101.93934631 13.21065521 C-86.12943417 -2.7660912 -71.16792912 -16.72644965 -47.49609375 -18.28125 C-29.5097428 -18.07656891 -13.24161691 -12.52585384 0 0 Z " fill="#000000" transform="translate(1418.75,329.25)"/>
</svg>
