<?xml version="1.0" encoding="UTF-8"?>
<svg version="1.1" xmlns="http://www.w3.org/2000/svg" width="2048" height="2048">
<path d="M0 0 C1.04869402 -0.00297112 2.09738805 -0.00594224 3.17786068 -0.0090034 C6.66227817 -0.0176161 10.146661 -0.01919234 13.63108826 -0.02069092 C16.14221773 -0.02532457 18.65334651 -0.03034996 21.16447449 -0.03573608 C27.96907111 -0.04881432 34.77365648 -0.05533467 41.57826352 -0.05974674 C45.84081154 -0.06252203 50.10335734 -0.06676179 54.36590385 -0.07125092 C66.20528934 -0.08343819 78.04467306 -0.09373649 89.88406467 -0.09712601 C90.64024904 -0.09734557 91.39643341 -0.09756514 92.17553246 -0.09779136 C92.93337294 -0.09800964 93.69121343 -0.09822791 94.47201878 -0.09845281 C96.00730105 -0.09889625 97.54258333 -0.09934281 99.0778656 -0.09979248 C100.22015856 -0.10012463 100.22015856 -0.10012463 101.38552814 -0.10046348 C113.68925781 -0.10440058 125.99292786 -0.12182366 138.29663456 -0.145152 C150.97810984 -0.16899903 163.6595554 -0.18133399 176.34105343 -0.18249393 C183.44107149 -0.18340358 190.54101198 -0.18897356 197.64100838 -0.20731354 C204.33471077 -0.22454481 211.02824258 -0.22586873 217.7219696 -0.21717453 C220.15731132 -0.21641298 222.59266143 -0.22062783 225.02798271 -0.23063278 C245.69907848 -0.31046435 266.71983342 0.63969225 286.83201599 5.82794189 C287.84642761 6.08140381 288.86083923 6.33486572 289.9059906 6.5960083 C306.121512 10.81404281 321.26239102 17.28531301 336.01951599 25.14044189 C337.01209412 25.65348877 338.00467224 26.16653564 339.02732849 26.69512939 C346.01075635 30.37585348 352.60276675 34.54665295 359.01951599 39.14044189 C359.6677533 39.60385986 360.3159906 40.06727783 360.98387146 40.54473877 C370.55686861 47.48175792 379.27607579 55.03757957 387.64451599 63.39044189 C388.46113708 64.20545166 389.27775818 65.02046143 390.11912537 65.86016846 C395.49334847 71.33375066 400.30574553 77.09610527 405.01951599 83.14044189 C406.37317574 84.8010115 407.72734288 86.46116762 409.08201599 88.12091064 C435.57074736 121.28991418 453.99989299 162.44675654 468.01951599 202.14044189 C468.25650208 202.81121765 468.49348816 203.48199341 468.73765564 204.1730957 C481.97304953 241.77590972 492.61181693 279.9348583 500.58000183 318.99182129 C500.98316047 320.96271335 501.39286079 322.93226432 501.8032074 324.90167236 C506.69568824 348.44864355 510.17119676 372.2977463 512.76951599 396.20294189 C512.88504822 397.26432373 513.00058044 398.32570557 513.11961365 399.41925049 C514.71052369 414.90105038 515.20610352 430.3127734 515.20481873 445.86773682 C515.20700052 448.80709437 515.22522869 451.74607226 515.24412537 454.68536377 C515.37454117 498.30364501 507.21128448 544.54010611 482.01951599 581.14044189 C480.98611165 582.78792688 479.95289414 584.4355374 478.92503357 586.08648682 C467.80778531 603.79909164 454.94152453 619.90374253 440.72264099 635.19122314 C438.64420541 637.42995842 436.65180528 639.73112792 434.66404724 642.05059814 C431.16285739 646.06666886 427.38703352 649.67462231 423.45701599 653.26544189 C418.0287672 658.28276718 412.71508354 663.38249919 407.51951599 668.64044189 C403.54878653 672.65051797 399.56001454 676.53837902 395.25389099 680.19122314 C392.04152439 682.99361989 388.94246705 685.91332973 385.83201599 688.82794189 C379.45859746 694.79733899 373.05710393 700.73455581 366.63426208 706.6506958 C364.38419534 708.72658139 362.14005063 710.80882871 359.89573669 712.89093018 C358.24418548 714.41856133 356.58558997 715.93821617 354.92576599 717.45684814 C353.25450421 719.0000697 351.59832958 720.56081833 349.98826599 722.16778564 C345.79820957 726.22001126 341.18118604 728.8334283 336.01951599 731.45294189 C335.35460144 731.79099854 334.68968689 732.12905518 334.00462341 732.47735596 C320.69459471 738.94002885 303.03208736 739.63261913 288.83201599 735.57794189 C286.86827468 734.83109347 284.92877565 734.01724864 283.01951599 733.14044189 C281.37982849 732.39407471 281.37982849 732.39407471 279.70701599 731.63262939 C263.59093485 723.61189457 252.33558458 710.35235107 246.05076599 693.55059814 C241.09311897 677.18577257 243.10194153 658.67326732 250.58201599 643.45294189 C254.47118018 636.88393074 259.69149007 631.53906887 265.01951599 626.14044189 C265.6260199 625.5202417 266.2325238 624.9000415 266.85740662 624.26104736 C273.06219789 617.92581088 279.28879695 611.71288266 285.99925232 605.91119385 C289.42305694 602.91024461 292.71620002 599.77270859 296.01951599 596.64044189 C304.84643651 588.28690443 304.84643651 588.28690443 308.58982849 584.85528564 C317.55710586 576.609227 326.22737438 568.06591841 334.86198425 559.47421265 C336.24174556 558.10186768 337.62309551 556.7311178 339.00614929 555.36209106 C359.11770984 535.43570355 378.55285291 512.73053629 384.01951599 484.14044189 C384.19539246 483.26476562 384.37126892 482.38908936 384.55247498 481.48687744 C386.35152592 471.44370953 386.37475702 461.49504984 386.33201599 451.32794189 C386.32986084 450.40426819 386.32770569 449.48059448 386.32548523 448.52893066 C386.2611982 431.24315246 385.23933718 414.29731785 383.01951599 397.14044189 C382.9247699 396.39550476 382.8300238 395.65056763 382.73240662 394.88305664 C379.33595514 368.30041281 374.28700019 342.19057142 368.01951599 316.14044189 C367.85236084 315.44495239 367.68520569 314.74946289 367.51298523 314.03289795 C360.56668439 285.30217975 351.62788273 257.05640964 340.26951599 229.76544189 C339.9654483 229.03130066 339.66138062 228.29715942 339.34809875 227.54077148 C335.60876098 218.56671541 331.45905627 209.93880007 326.79588318 201.40899658 C325.06512664 198.22436649 323.44738428 195.00954382 321.87937927 191.7432251 C310.37111252 167.78237327 292.63958996 144.71917443 266.8993988 135.37042236 C264.44805271 134.51512561 261.98787572 133.69527938 259.51951599 132.89044189 C258.73624939 132.63174316 257.95298279 132.37304443 257.14598083 132.10650635 C248.09402929 129.28236531 239.03373734 128.99077297 229.61003113 129.00672913 C228.61089447 129.00446357 227.61175782 129.00219801 226.58234429 128.9998638 C223.26028274 128.9935729 219.9382625 128.99434999 216.61619568 128.99517822 C214.22367297 128.99218367 211.83115075 128.98878046 209.43862915 128.98500061 C203.62931936 128.97710083 197.82002194 128.97394727 192.01070705 128.97338823 C187.28423364 128.97291151 182.55776356 128.97084903 177.8312912 128.96768761 C164.40359582 128.95889018 150.9759084 128.95426682 137.54821011 128.95501808 C136.82572836 128.95505804 136.1032466 128.95509799 135.35887146 128.95513916 C134.6354982 128.95518004 133.91212494 128.95522092 133.16683128 128.95526304 C121.4498654 128.95566929 109.73293168 128.94610269 98.01597509 128.93200079 C85.9583563 128.91760446 73.90075317 128.91073239 61.84312558 128.91159457 C55.08443164 128.91192541 48.32577142 128.90922819 41.56708527 128.89841652 C35.20751516 128.888701 28.84801606 128.88868001 22.48844337 128.89593315 C20.16255654 128.89697469 17.8366652 128.89464185 15.51078606 128.88857269 C0.72862211 128.85251695 -13.76620191 128.83529031 -27.91798401 133.70294189 C-28.66668762 133.9576123 -29.41539124 134.21228271 -30.18678284 134.47467041 C-40.35048273 138.12689749 -50.29927671 143.48905818 -57.57814026 151.60137939 C-58.98048401 153.14044189 -58.98048401 153.14044189 -61.98048401 155.51544189 C-65.94036349 158.98033644 -68.8818945 162.90772811 -71.98048401 167.14044189 C-72.5824762 167.93837158 -73.18446838 168.73630127 -73.80470276 169.55841064 C-87.80467355 188.66032307 -89.17507831 209.80209886 -89.1108551 232.66802979 C-89.105384 234.9954854 -89.11089596 237.3227569 -89.11720276 239.65020752 C-89.11654372 241.13262982 -89.1152662 242.61505201 -89.11329651 244.09747314 C-89.11633286 245.13941582 -89.11633286 245.13941582 -89.11943054 246.20240784 C-89.38004083 249.45144835 -89.38004083 249.45144835 -87.98048401 252.14044189 C-87.8678077 255.07254718 -87.81794304 257.98462066 -87.80470276 260.91778564 C-87.78462131 262.84553154 -87.76340395 264.77326585 -87.7412262 266.70098877 C-87.73006775 267.73602539 -87.7189093 268.77106201 -87.70741272 269.83746338 C-87.01592733 326.66771449 -82.42343847 383.94492646 -73.31513977 440.06854248 C-72.96872772 442.21322668 -72.62845561 444.35881465 -72.28956604 446.50469971 C-58.25269518 535.20834299 -35.43273491 622.58336404 12.11335754 746.01400757 C12.93987457 747.95355156 13.76188058 749.89490546 14.58128357 751.83746338 C33.4122888 796.43789296 54.32530935 840.28487589 78.40330505 882.30206299 C80.01978671 885.14091733 81.612909 887.99165497 83.19920349 890.84747314 C90.51574408 903.99170385 98.28761249 916.78745701 106.3447113 929.49005127 C107.80963677 931.80830649 109.25994105 934.13432881 110.69920349 936.46856689 C117.52938167 947.54453151 124.74527671 958.35225236 132.01951599 969.14044189 C132.70529724 970.1594458 133.39107849 971.17844971 134.09764099 972.22833252 C145.95766542 989.83440893 158.02884148 1007.17190515 171.13475037 1023.87554932 C174.23558434 1027.82963583 177.27718655 1031.80661841 180.20701599 1035.89044189 C187.46751488 1045.99334886 195.32707881 1055.60101489 203.40232849 1065.05841064 C205.81448123 1067.88727202 208.17371597 1070.75619311 210.51951599 1073.64044189 C217.79839892 1082.57007149 225.22657803 1091.34981339 232.97264099 1099.87872314 C234.84461289 1101.94718065 236.68814989 1104.03605103 238.51951599 1106.14044189 C248.29915827 1117.352343 258.24359445 1128.4947209 268.83201599 1138.95294189 C271.84593856 1141.93246877 274.76745865 1144.91772392 277.51951599 1148.14044189 C283.12595489 1154.68800963 289.27032433 1160.79912006 295.80467224 1166.41778564 C301.25806097 1171.14835073 306.25031047 1176.32398031 311.30857849 1181.46856689 C315.43102305 1185.63351089 319.62336977 1189.61931137 324.06785583 1193.43829346 C327.41891707 1196.36093531 330.61152092 1199.4506491 333.83201599 1202.51544189 C339.19019525 1207.58077023 344.62086845 1212.38466278 350.39060974 1216.97637939 C353.31124189 1219.38058476 356.07322387 1221.93028636 358.83201599 1224.51544189 C363.6008578 1228.96667154 368.58103244 1233.03558464 373.74412537 1237.01934814 C377.70356751 1240.08108544 381.54075848 1243.24851978 385.33201599 1246.51544189 C391.54818411 1251.84644444 398.02307692 1256.80069388 404.55076599 1261.74200439 C408.36843576 1264.63382203 412.14500273 1267.57492564 415.91355896 1270.53033447 C423.54853262 1276.51461284 431.27174128 1282.31452161 439.21824646 1287.87774658 C441.13662239 1289.22253383 443.04923909 1290.57522145 444.96092224 1291.92950439 C448.54180947 1294.46547283 452.12868897 1296.99281731 455.7172699 1299.5178833 C458.09560399 1301.19406659 460.46971654 1302.87612158 462.84373474 1304.55841064 C474.38550113 1312.71530475 486.10968287 1320.53231226 498.01951599 1328.14044189 C498.78554138 1328.63221924 499.55156677 1329.12399658 500.34080505 1329.63067627 C538.69934826 1354.23928343 578.47204383 1376.37400476 619.01951599 1397.14044189 C620.00854919 1397.64929932 620.9975824 1398.15815674 622.0165863 1398.68243408 C659.91981664 1418.14070834 699.3413826 1435.10723855 739.33103943 1449.78204346 C741.83790557 1450.70527639 744.34110234 1451.63484882 746.84080505 1452.57696533 C787.34877154 1467.83925838 828.79611846 1480.59014163 870.63890076 1491.63824463 C892.7843052 1497.50842493 912.70966852 1504.29930925 925.01951599 1525.14044189 C934.11113765 1541.95459395 936.33115477 1558.14945166 931.15232849 1576.47247314 C925.9486391 1593.32166052 915.27192938 1606.53639606 899.90135193 1615.16973877 C890.78753099 1619.87090016 881.30975853 1622.25718141 871.08201599 1622.39044189 C869.91799255 1622.41622314 868.75396912 1622.44200439 867.55467224 1622.46856689 C855.66061715 1621.99654683 843.80898886 1618.11985908 832.45701599 1614.82794189 C830.51705629 1614.27061761 828.57659968 1613.71506279 826.63592529 1613.16023254 C825.29040428 1612.77547311 823.94518516 1612.38965658 822.60025024 1612.00285339 C818.73446861 1610.89586684 814.86151916 1609.82414403 810.97581482 1608.78912354 C796.78830416 1605.00566827 782.80292752 1600.71750379 768.83201599 1596.20294189 C767.11714493 1595.65044769 767.11714493 1595.65044769 765.36763 1595.08679199 C730.56288698 1583.86124346 696.16234597 1571.86750301 662.29185486 1558.06500244 C660.04150429 1557.14938841 657.78911605 1556.2389716 655.53611755 1555.32989502 C631.71998449 1545.70703686 608.39859423 1535.12287991 585.17362976 1524.15661621 C583.21183427 1523.23116546 581.24868328 1522.30869615 579.28465271 1521.38800049 C567.30179794 1515.76621732 555.49209046 1509.89885092 543.8290863 1503.64093018 C541.17925196 1502.22575101 538.52314108 1500.8229512 535.86462402 1499.42416382 C520.19662124 1491.1786343 504.77674199 1482.62964989 489.53514099 1473.61260986 C486.10349992 1471.60438047 482.62692355 1469.68368222 479.14451599 1467.76544189 C462.28160454 1458.40563923 445.9950745 1447.90600919 429.86619568 1437.34454346 C427.46593182 1435.77948511 425.05247951 1434.23557113 422.63792419 1432.69268799 C393.16014527 1413.84441204 364.75917103 1393.44906393 337.01951599 1372.14044189 C335.77752328 1371.18966655 334.53535848 1370.23911593 333.29295349 1369.28887939 C321.71695325 1360.42485316 310.26405921 1351.42188129 299.01951599 1342.14044189 C296.93144978 1340.42033528 294.8429707 1338.70073105 292.75437927 1336.98126221 C291.26383123 1335.75352218 289.77392252 1334.52500556 288.28465271 1333.29571533 C284.3230443 1330.02718974 280.33850256 1326.79141635 276.33201599 1323.57794189 C270.736957 1319.01489835 265.50422731 1314.08584153 260.24217224 1309.14825439 C257.20157268 1306.29818619 254.09603175 1303.53555379 250.94139099 1300.81231689 C247.82421771 1298.10062957 244.7696665 1295.31963222 241.70701599 1292.54669189 C240.21760786 1291.21315205 238.72281873 1289.88530783 237.20701599 1288.58184814 C231.52413818 1283.68702566 226.26880068 1278.45318918 221.01951599 1273.10137939 C217.86197698 1269.90683797 214.68821163 1266.80612099 211.27342224 1263.88653564 C206.1184761 1259.44409244 201.34576345 1254.61633711 196.5466156 1249.7979126 C194.95991653 1248.20585223 193.36793857 1246.61921199 191.77537537 1245.03302002 C186.89918121 1240.15968017 182.14089613 1235.24037471 177.65843201 1229.99761963 C174.6140164 1226.54776568 171.30282023 1223.36084759 168.01951599 1220.14044189 C163.36433772 1215.57444328 158.88786494 1210.94433349 154.63182068 1206.0022583 C152.36451841 1203.38408036 150.00519451 1200.86230397 147.64451599 1198.32794189 C144.15184108 1194.55303063 140.80441592 1190.71485905 137.58201599 1186.70294189 C134.21600459 1182.51800823 130.68724545 1178.55782546 127.01951599 1174.64044189 C121.75467204 1169.00495029 116.83934 1163.16325624 112.01951599 1157.14044189 C110.48963574 1155.25312268 108.95627721 1153.36866437 107.42259216 1151.48443604 C105.75503618 1149.43514741 104.09025415 1147.38362897 102.42576599 1145.33184814 C100.16152765 1142.54254074 97.89028649 1139.7591667 95.61326599 1136.98028564 C89.2201408 1129.16832308 83.0165497 1121.26313652 77.01951599 1113.14044189 C75.16975023 1110.65797216 73.31354493 1108.18035586 71.45701599 1105.70294189 C70.95774597 1105.03456299 70.45847595 1104.36618408 69.94407654 1103.67755127 C67.08246685 1099.85554137 64.1897463 1096.06115648 61.25779724 1092.29278564 C52.53447791 1081.04579978 44.45933609 1069.51186273 36.64451599 1057.61700439 C33.73809013 1053.19857379 30.75025198 1048.85806351 27.64451599 1044.57794189 C18.95233797 1032.56076011 11.06836883 1020.08845739 3.30467224 1007.45684814 C0.75782957 1003.31925667 -1.83532879 999.21434019 -4.45314026 995.12139893 C-21.60822842 968.26224922 -36.82769031 940.16226234 -51.98048401 912.14044189 C-52.36430237 911.43210205 -52.74812073 910.72376221 -53.14356995 909.99395752 C-58.293875 900.47638022 -63.20885632 890.85263626 -67.98048401 881.14044189 C-68.49465881 880.09952393 -69.00883362 879.05860596 -69.53858948 877.98614502 C-90.56249053 835.35318464 -109.24913136 791.62906734 -125.98048401 747.14044189 C-126.27076477 746.36861572 -126.56104553 745.59678955 -126.86012268 744.80157471 C-162.65532497 649.33440383 -187.31912484 550.2365639 -208.79298401 399.20294189 C-208.94230881 397.86859604 -208.94230881 397.86859604 -209.09465027 396.5072937 C-211.77963712 372.25803724 -213.38203652 347.93847172 -214.78541565 323.58721924 C-214.95557054 320.63681597 -215.12908829 317.68664366 -215.30592346 314.7366333 C-216.99523921 286.54103216 -218.20963873 258.3308829 -218.16798401 230.07794189 C-218.16704742 229.22098724 -218.16611084 228.36403259 -218.16514587 227.48110962 C-218.11429056 205.73933676 -216.6355756 185.21141465 -210.98048401 164.14044189 C-210.75344788 163.28466553 -210.52641174 162.42888916 -210.29249573 161.54718018 C-204.33840386 139.49389716 -195.34041683 118.06036216 -181.75392151 99.56231689 C-180.00603103 97.1753299 -178.3493251 94.73675175 -176.69703674 92.28302002 C-172.54205477 86.14415942 -168.02008076 80.57652865 -162.98048401 75.14044189 C-161.87310641 73.85152698 -160.76890604 72.55987516 -159.66798401 71.26544189 C-152.86070104 63.49895088 -145.59647026 56.33602347 -137.41798401 50.02325439 C-135.83184007 48.79805988 -134.26755128 47.54385582 -132.73048401 46.25762939 C-96.29914948 15.85715767 -47.15320111 -0.04264958 0 0 Z " fill="#000000" transform="translate(409.98048400878906,191.85955810546875)"/>
<path d="M0 0 C7.51586403 5.7740088 14.05502221 12.52347731 20.71972656 19.234375 C22.26100606 20.78301953 23.80275974 22.33119023 25.34472656 23.87915039 C26.40648595 24.94597668 27.46735164 26.01369313 28.52734375 27.08227539 C30.06828493 28.63533687 31.61242609 30.18515344 33.15722656 31.734375 C34.0732666 32.65565186 34.98930664 33.57692871 35.93310547 34.52612305 C38.2865655 36.8966673 38.2865655 36.8966673 41.30566406 38.78515625 C41.30566406 39.44515625 41.30566406 40.10515625 41.30566406 40.78515625 C42.16369629 41.15314331 42.16369629 41.15314331 43.0390625 41.52856445 C45.69303204 42.99991098 47.45065589 44.72068026 49.57128906 46.890625 C50.37953125 47.70982422 51.18777344 48.52902344 52.02050781 49.37304688 C52.85710938 50.23091797 53.69371094 51.08878906 54.55566406 51.97265625 C59.66320816 57.188445 64.77425441 62.27190407 70.31835938 67.02270508 C74.069514 70.34943545 77.54314993 73.96025288 81.05566406 77.53515625 C82.52722428 79.03230882 84.0011009 80.52718891 85.47753906 82.01953125 C86.11788086 82.67147461 86.75822266 83.32341797 87.41796875 83.99511719 C89.28722534 85.84832364 89.28722534 85.84832364 91.54492188 87.39550781 C92.41648926 88.08338379 92.41648926 88.08338379 93.30566406 88.78515625 C93.30566406 89.44515625 93.30566406 90.10515625 93.30566406 90.78515625 C93.87333496 91.02613037 94.44100586 91.26710449 95.02587891 91.51538086 C97.76210003 93.03937808 99.59198213 94.86293917 101.78222656 97.1015625 C103.03519531 98.3709668 103.03519531 98.3709668 104.31347656 99.66601562 C105.17714844 100.55095703 106.04082031 101.43589844 106.93066406 102.34765625 C108.64980591 104.10113007 110.37105419 105.852542 112.09472656 107.6015625 C112.85479004 108.37959229 113.61485352 109.15762207 114.39794922 109.95922852 C116.18124031 111.84601753 116.18124031 111.84601753 118.30566406 112.78515625 C118.30566406 113.44515625 118.30566406 114.10515625 118.30566406 114.78515625 C118.87768555 115.03048096 119.44970703 115.27580566 120.0390625 115.52856445 C122.69303204 116.99991098 124.45065589 118.72068026 126.57128906 120.890625 C127.37953125 121.70982422 128.18777344 122.52902344 129.02050781 123.37304688 C129.85710938 124.23091797 130.69371094 125.08878906 131.55566406 125.97265625 C136.69906018 131.22505683 141.84664762 136.34906919 147.4296875 141.1340332 C151.14778966 144.40648569 154.55592366 147.99546744 158.01660156 151.53515625 C160.99797859 154.55700446 164.0259808 157.45160582 167.24316406 160.22265625 C172.19560581 164.49759633 176.72744337 169.15657968 181.30566406 173.82421875 C185.18105454 177.74502396 189.16062492 181.4419072 193.33691406 185.0390625 C196.64321841 187.97143957 199.71285778 191.13098636 202.80566406 194.28515625 C207.16939301 198.69600854 211.5400738 202.98279583 216.28613281 206.984375 C219.58525009 209.92614108 222.65918772 213.09619741 225.74389648 216.26049805 C228.4283209 218.99236174 231.18111057 221.57728828 234.08300781 224.078125 C238.87179971 228.22492055 243.37581008 232.6339845 247.86816406 237.09765625 C248.67962891 237.88849609 249.49109375 238.67933594 250.32714844 239.49414062 C264.44426908 253.52010956 273.44601716 270.51641317 273.68066406 290.72265625 C273.47113678 310.85895099 265.58640409 329.0544197 251.32714844 343.1640625 C250.51568359 343.94652344 249.70421875 344.72898437 248.86816406 345.53515625 C248.06056641 346.33308594 247.25296875 347.13101562 246.42089844 347.953125 C242.78311998 351.5234829 239.1010475 355.00483404 235.23925781 358.33203125 C230.87155528 362.09990336 226.84558708 366.17164629 222.80566406 370.28515625 C218.76650615 374.39788716 214.74428982 378.4660817 210.36816406 382.22265625 C205.59634016 386.32820779 201.21890463 390.80107715 196.80566406 395.28515625 C191.76536753 400.40635642 186.71027134 405.40968521 181.25732422 410.09179688 C177.83301275 413.06290325 174.54463496 416.17901971 171.24316406 419.28515625 C170.57478516 419.91035156 169.90640625 420.53554688 169.21777344 421.1796875 C165.37273618 424.78931431 161.60134128 428.45580455 157.90576172 432.21850586 C156.24567921 433.84388722 154.51897642 435.35030795 152.74316406 436.84765625 C148.72824642 440.29907668 145.02701021 444.02456574 141.30566406 447.78515625 C134.02503549 455.14192212 134.02503549 455.14192212 130.36816406 458.22265625 C125.55984902 462.28324195 121.22969616 466.83745774 116.80517578 471.30517578 C113.05740799 475.07548088 109.25695272 478.68743111 105.19238281 482.1171875 C101.88464926 485.04141571 98.84484056 488.23940443 95.74316406 491.37890625 C93.052825 494.03475378 90.23992882 496.48651057 87.36816406 498.94140625 C84.09560976 501.86687146 81.05439528 505.01618905 77.99316406 508.16015625 C75.97215699 510.13416316 73.95165192 511.95859216 71.80566406 513.78515625 C65.65393065 519.11742799 60.02454116 524.99838972 54.30566406 530.78515625 C41.46977979 543.77341676 41.46977979 543.77341676 35.22363281 549.08984375 C31.22806602 552.62156674 27.54464398 556.48616061 23.80566406 560.28515625 C18.15482204 566.02670199 12.44254976 571.56448166 6.30566406 576.78515625 C5.48839844 577.50703125 4.67113281 578.22890625 3.82910156 578.97265625 C-10.958111 591.44768649 -27.60024368 596.09940055 -46.69433594 594.78515625 C-62.97926489 592.96581041 -78.05133709 585.2899954 -88.69433594 572.78515625 C-100.34752877 558.03827188 -103.75397406 542.24248255 -102.69433594 523.78515625 C-99.99151618 501.08605134 -85.75977946 486.166228 -69.57958984 471.53222656 C-67.73738299 469.82504808 -65.96708862 468.06780306 -64.20605469 466.27734375 C-61.82004249 463.86001198 -59.36419527 461.59241926 -56.78808594 459.37890625 C-52.36661589 455.56230012 -48.28510365 451.45043703 -44.19433594 447.28515625 C-39.45076196 442.45517837 -34.65311788 437.80463432 -29.52050781 433.38867188 C-26.95085184 431.13232155 -24.58374721 428.7321437 -22.19433594 426.28515625 C-19.18437474 423.22980061 -16.15864794 420.24426383 -12.88183594 417.47265625 C-8.31829499 413.58658942 -4.15847738 409.30228248 0.03149414 405.0222168 C3.63409415 401.36617642 7.36364247 397.9386755 11.24804688 394.58447266 C14.80922537 391.47034291 18.24130925 388.22003976 21.68066406 384.97265625 C22.4230835 384.27342041 23.16550293 383.57418457 23.93041992 382.85375977 C28.76314174 378.28668216 33.48753871 373.6357816 38.15722656 368.90234375 C40.87215248 366.22690766 43.71035259 363.72522257 46.61425781 361.2578125 C48.25399342 359.83014432 49.77646117 358.32935395 51.30566406 356.78515625 C50.2766507 356.78417944 49.24763735 356.78320263 48.18744177 356.78219622 C2.8188032 356.73893338 -42.54982985 356.69196227 -87.91844177 356.62617493 C-88.60573257 356.62517936 -89.29302338 356.62418379 -90.00114117 356.62315806 C-104.93925719 356.60149751 -119.87737216 356.57917467 -134.81548617 356.55616997 C-142.14155765 356.54489185 -149.46762935 356.53376001 -156.79370117 356.52270508 C-157.88722621 356.52105123 -157.88722621 356.52105123 -159.00284266 356.51936397 C-182.61537551 356.48372088 -206.22790694 356.45773026 -229.840457 356.43676656 C-254.11351299 356.41516531 -278.38653729 356.38378343 -302.65956418 356.34016512 C-306.09110127 356.33400324 -309.52263854 356.3279527 -312.95417595 356.32196999 C-313.62952519 356.3207891 -314.30487443 356.31960822 -315.0006888 356.31839156 C-325.85445842 356.29969916 -336.70821275 356.29126049 -347.5619965 356.28669501 C-358.4843091 356.28188047 -369.40656143 356.26593159 -380.32884318 356.23949059 C-386.24248081 356.22549731 -392.15602215 356.21629672 -398.06967735 356.22014809 C-403.49043342 356.22357131 -408.91098423 356.2131187 -414.33169829 356.19192073 C-416.28618476 356.18667498 -418.24069267 356.18639449 -420.19517881 356.19176062 C-434.07846898 356.22597645 -448.31390535 355.97055421 -460.88183594 349.28515625 C-461.53909668 348.94476318 -462.19635742 348.60437012 -462.87353516 348.25366211 C-472.93531352 342.76619623 -481.10696784 334.81616945 -486.69433594 324.78515625 C-487.05785156 324.18832031 -487.42136719 323.59148437 -487.79589844 322.9765625 C-496.33748041 307.81688458 -497.04930563 288.86714229 -492.5246582 272.3605957 C-487.341794 255.23093713 -476.7216356 242.98964773 -461.11621094 234.359375 C-447.38405414 227.55352536 -433.36266096 227.34552307 -418.40847778 227.38642883 C-416.37523904 227.38098165 -414.34200346 227.37422688 -412.30877292 227.36628693 C-406.75359534 227.34833861 -401.19855197 227.34880923 -395.64335227 227.3524164 C-389.64079383 227.35304211 -383.63827969 227.33640278 -377.63574219 227.32189941 C-367.24653176 227.29914164 -356.85734518 227.28712886 -346.46811295 227.28277016 C-335.57768233 227.27815573 -324.68728657 227.26734413 -313.79687119 227.24834251 C-312.77934983 227.24657232 -312.77934983 227.24657232 -311.7412725 227.24476637 C-308.29597575 227.23874055 -304.85067921 227.23260485 -301.40538274 227.22642686 C-277.03279691 227.18292015 -252.66021193 227.15317749 -228.28759766 227.1315918 C-204.61701202 227.11059621 -180.94644711 227.08332716 -157.27587891 227.04760742 C-156.54563288 227.04650794 -155.81538685 227.04540847 -155.06301215 227.04427567 C-147.72926068 227.03322688 -140.39550942 227.02205101 -133.06175829 227.01078205 C-118.12343849 226.98783089 -103.18511748 226.96572767 -88.24679565 226.94413757 C-87.56002814 226.94314395 -86.87326063 226.94215034 -86.16568198 226.94112661 C-40.34191673 226.87492569 5.48187214 226.82855003 51.30566406 226.78515625 C50.42691116 225.97786575 49.54815826 225.17057526 48.64277649 224.33882141 C47.47087172 223.26019092 46.29901451 222.18150877 45.12719727 221.1027832 C44.26179699 220.30814037 44.26179699 220.30814037 43.37891388 219.49744415 C38.27399481 214.79482992 33.35951948 209.92142243 28.49316406 204.97265625 C22.11842068 198.48162305 22.11842068 198.48162305 15.38769531 192.3671875 C9.27435229 187.11558385 3.73687529 181.25842216 -1.91699219 175.5234375 C-6.46812326 170.93255856 -11.05962264 166.49222366 -15.96972656 162.28710938 C-19.16094242 159.50789647 -22.05698169 156.43973629 -25.00683594 153.41015625 C-27.07636449 151.38875627 -29.15733942 149.50724781 -31.35058594 147.62890625 C-37.53504004 142.26827249 -43.17490275 136.34790986 -48.91699219 130.5234375 C-53.3990649 126.00222005 -57.92051352 121.64101192 -62.75585938 117.50097656 C-66.36129559 114.30966602 -69.69787686 110.84486972 -73.06933594 107.41015625 C-74.47066341 105.98339634 -75.87419944 104.55880118 -77.28027344 103.13671875 C-77.88919434 102.51619629 -78.49811523 101.89567383 -79.12548828 101.25634766 C-80.64557055 99.69053663 -80.64557055 99.69053663 -82.69433594 98.78515625 C-82.69433594 98.12515625 -82.69433594 97.46515625 -82.69433594 96.78515625 C-83.68433594 96.45515625 -84.67433594 96.12515625 -85.69433594 95.78515625 C-97.87509479 81.94220429 -103.43151622 65.84782167 -102.97558594 47.515625 C-101.67006868 30.19938922 -94.28216019 14.33466172 -81.38183594 2.47265625 C-57.59292435 -16.06628864 -24.85269045 -17.81945067 0 0 Z " fill="#000000" transform="translate(1582.6943359375,310.21484375)"/>
<path d="M0 0 C22.04098737 -0.64353248 38.3710264 9.48611482 53.890625 24.125 C55.19626323 25.278646 56.50816826 26.42526454 57.828125 27.5625 C61.2375108 30.5238351 64.5685681 33.56652486 67.890625 36.625 C71.85403879 40.27355454 75.85113323 43.87381144 79.921875 47.40234375 C82.14387227 49.34659136 84.32917723 51.32836964 86.515625 53.3125 C95.59335593 61.48800996 104.84529722 69.41144058 114.49462891 76.90527344 C119.05857503 80.4523292 123.54335673 84.08826736 128.015625 87.75 C133.4836024 92.21565553 139.01975215 96.55024291 144.69921875 100.74609375 C147.14781067 102.57129874 149.57329321 104.4163296 151.98828125 106.28515625 C159.04087765 111.74077453 166.08835008 117.05943365 173.56640625 121.92578125 C177.89610536 124.79020028 182.14174961 127.76746406 186.390625 130.75 C187.24342041 131.34699707 188.09621582 131.94399414 188.97485352 132.55908203 C193.35230956 135.62701477 197.71664577 138.71166977 202.0625 141.82421875 C209.83639312 147.37211378 217.63383352 152.81363273 225.890625 157.625 C226.86950684 158.21341675 226.86950684 158.21341675 227.86816406 158.8137207 C229.8769933 159.9932108 229.8769933 159.9932108 232.890625 161.125 C235.93241385 160.02377108 237.80958511 158.40953134 239.95703125 156.03515625 C240.51962646 155.42099854 241.08222168 154.80684082 241.66186523 154.17407227 C242.54853882 153.19071899 242.54853882 153.19071899 243.453125 152.1875 C247.82048661 147.41817439 252.22325552 142.72859012 256.828125 138.1875 C259.87986309 135.17591636 262.80355094 132.14324828 265.578125 128.875 C268.3332926 125.6530746 271.30227613 122.96309662 274.53515625 120.23046875 C277.55754396 117.52886514 280.3654705 114.64310007 283.203125 111.75 C288.78292073 106.10119903 294.61070571 100.994784 300.890625 96.125 C301.90769531 95.32578125 302.92476562 94.5265625 303.97265625 93.703125 C316.42000999 83.97376616 329.12636271 74.90580046 342.890625 67.125 C343.95144287 66.52171875 343.95144287 66.52171875 345.03369141 65.90625 C364.57963596 54.90171557 385.11032021 47.37112363 406.890625 42.125 C407.63231934 41.94517578 408.37401367 41.76535156 409.13818359 41.58007812 C450.18269195 32.02089664 495.47739716 36.0357944 536.890625 41.125 C537.66627808 41.21930298 538.44193115 41.31360596 539.24108887 41.4107666 C615.43171562 50.73602396 691.90361773 70.35190433 761.890625 102.125 C762.83260742 102.55006836 763.77458984 102.97513672 764.74511719 103.41308594 C826.54292003 131.49147226 880.59340634 175.82678842 906.07666016 240.1171875 C910.14692853 250.98549938 913.32749627 262.03115918 915.765625 273.375 C916.05252197 274.70132446 916.05252197 274.70132446 916.34521484 276.05444336 C919.94432724 294.20528039 920.18647666 312.52356073 920.1652832 330.95776367 C920.16964106 333.49154814 920.17482775 336.0253313 920.18077087 338.55911255 C920.19268386 344.67823525 920.19532628 350.79729731 920.19297061 356.9164293 C920.1911739 361.90048631 920.19296574 366.88453014 920.19719505 371.86858559 C920.19779024 372.583027 920.19838543 373.29746841 920.19899866 374.03355956 C920.20021065 375.4858426 920.20142478 376.93812564 920.20264103 378.39040867 C920.21347193 391.95457635 920.21137544 405.51871906 920.20525619 419.0828881 C920.20009237 431.43199086 920.21133633 443.78101462 920.23035441 456.13010176 C920.24983021 468.87627294 920.25797177 481.62240692 920.25423115 494.36859304 C920.25233361 501.49806116 920.2546632 508.62746214 920.26894569 515.75691795 C920.28225806 522.46880256 920.27946876 529.1805054 920.26653481 535.89239883 C920.26419509 538.33461501 920.26680823 540.77684262 920.27515793 543.21904564 C920.34113599 564.04278127 919.14365153 584.90034019 913.828125 605.125 C913.53067383 606.27814697 913.23322266 607.43129395 912.92675781 608.61938477 C904.75900423 638.9499438 890.12635055 667.12703667 869.890625 691.125 C869.43010742 691.67430176 868.96958984 692.22360352 868.49511719 692.78955078 C860.50374875 702.30467533 852.54628333 710.94997412 842.82421875 718.74609375 C840.89455327 720.31089572 838.98966545 721.90684534 837.11328125 723.53515625 C795.58597117 759.47991984 738.91623373 775.37384463 684.65234375 771.8828125 C670.58644033 770.69302426 657.85796868 766.04960155 646.890625 757.125 C646.20871094 756.62742187 645.52679687 756.12984375 644.82421875 755.6171875 C632.93875168 746.36001354 625.96855542 730.61813136 623.515625 716.125 C621.4860817 698.50310003 626.11529738 681.57165546 637.015625 667.5625 C647.99066767 654.76430057 662.80657034 645.11364518 679.96875 643.7109375 C681.35891122 643.63198478 682.74959944 643.56188408 684.140625 643.5 C684.88296387 643.46060303 685.62530273 643.42120605 686.39013672 643.38061523 C690.60683196 643.17319941 694.79320661 643.11312136 699.015625 643.1875 C723.39832394 643.32037574 745.75948487 634.37880175 763.38671875 617.61376953 C782.30993033 598.88101885 790.92718115 576.66553157 791.15132141 550.14042664 C791.17352092 545.71423129 791.17049203 541.28829609 791.1652832 536.86206055 C791.16963603 534.41322678 791.17482107 531.96439437 791.18077087 529.51556396 C791.19272871 523.57965195 791.19531971 517.64378194 791.19297061 511.70786246 C791.19117994 506.87754604 791.19295305 502.04724328 791.19719505 497.21692848 C791.19779024 496.52669375 791.19838543 495.83645901 791.19899866 495.12530807 C791.20021054 493.72261271 791.20142468 492.31991736 791.20264103 490.917222 C791.21349166 477.79305306 791.21136589 464.66890989 791.20525619 451.54473952 C791.20008962 439.57063575 791.21134002 427.59661339 791.23035441 415.62252571 C791.24978389 403.2913339 791.25797985 390.96018051 791.25423115 378.62897331 C791.25232679 371.72045797 791.25473147 364.81201189 791.26894569 357.90350914 C791.28218544 351.40352308 791.27953045 344.90365866 791.26653481 338.40367126 C791.26418085 336.02863318 791.26686096 333.65358349 791.27515793 331.27855873 C791.37243213 301.2506172 785.48178829 276.36412006 763.8828125 254.05078125 C752.50095108 243.38299098 738.59999836 235.39220544 724.890625 228.125 C723.99633789 227.64498535 723.99633789 227.64498535 723.08398438 227.15527344 C671.59681925 199.70869754 612.3516107 183.27198155 554.890625 174.125 C554.2346936 174.02014282 553.57876221 173.91528564 552.9029541 173.80725098 C534.96661087 170.94877374 517.02716621 168.30997746 498.890625 167.125 C498.04886719 167.06860352 497.20710938 167.01220703 496.33984375 166.95410156 C455.00309401 164.30390782 418.00917972 165.96620728 384.94921875 193.58203125 C382.55760296 195.72535716 380.22017582 197.91469493 377.890625 200.125 C376.6670914 201.19398198 375.43801426 202.25665652 374.203125 203.3125 C364.28744284 211.99121578 354.80840603 221.00486388 345.89575195 230.71313477 C342.33508387 234.59163804 338.70451655 238.36837167 334.953125 242.0625 C331.40960034 245.56997136 328.04548878 249.13972667 324.8046875 252.92578125 C320.83549103 257.486307 316.68530071 261.8871373 312.5703125 266.31591797 C310.84115757 268.17827815 309.11586425 270.04416878 307.390625 271.91015625 C304.45521972 275.07979727 301.50432974 278.23428449 298.53955078 281.37646484 C297.48821376 282.49131171 296.43943254 283.60857822 295.39404297 284.72900391 C282.43114108 298.56953231 268.03942611 307.25154283 248.78515625 308.29296875 C218.12697353 308.48725381 192.93824545 289.51220694 168.02832031 273.49072266 C165.25203521 271.71702018 162.45323369 269.98107196 159.65234375 268.24658203 C151.27286865 263.05415486 143.05160701 257.65340717 134.890625 252.125 C133.61662842 251.26334229 133.61662842 251.26334229 132.31689453 250.38427734 C121.69299509 243.19228187 111.1012839 235.96598285 100.70996094 228.44091797 C98.63015424 226.9366026 96.54564196 225.43892636 94.4609375 223.94140625 C75.33989319 210.19240774 56.65988932 195.92254856 38.4296875 181.01171875 C35.56319458 178.6674399 32.67151312 176.35786765 29.765625 174.0625 C25.12204867 170.36324759 20.62961259 166.49848875 16.13671875 162.61914062 C12.56103395 159.53705579 8.94302478 156.5235232 5.265625 153.5625 C0.21606264 149.46484336 -4.55619332 145.11618419 -9.3203125 140.6953125 C-11.6544705 138.54422571 -14.01684117 136.44574342 -16.421875 134.375 C-19.53947289 131.67522451 -22.43627342 128.81676456 -25.328125 125.87890625 C-28.97199576 122.2909721 -32.85109161 118.91849129 -36.85546875 115.73828125 C-48.9949977 105.95376484 -59.00873767 90.79461898 -61.109375 75.125 C-62.53277636 55.39761475 -59.42446299 37.96507529 -46.2890625 22.5 C-33.80389309 8.89608781 -18.44516119 1.09304659 0 0 Z " fill="#000000" transform="translate(936.109375,1083.875)"/>
</svg>
