<?xml version="1.0" standalone="no"?>
<!DOCTYPE svg PUBLIC "-//W3C//DTD SVG 20010904//EN"
 "http://www.w3.org/TR/2001/REC-SVG-20010904/DTD/svg10.dtd">
<svg version="1.0" xmlns="http://www.w3.org/2000/svg"
 width="81.000000pt" height="82.000000pt" viewBox="0 0 81.000000 82.000000"
 preserveAspectRatio="xMidYMid meet">

<g transform="translate(0.000000,82.000000) scale(0.100000,-0.100000)"
fill="#000000" stroke="none">
<path d="M713 632 c-28 -4 -63 -47 -63 -77 0 -40 37 -75 78 -75 43 0 55 7 71
37 33 63 -14 126 -86 115z"/>
<path d="M27 448 c-38 -28 -34 -56 17 -126 24 -33 43 -68 43 -77 -2 -13 13
-23 56 -37 32 -11 60 -18 62 -16 3 2 -1 32 -7 66 -10 52 -14 61 -29 57 -20 -7
-60 41 -93 110 l-21 43 -28 -20z"/>
<path d="M637 432 c-9 -9 -26 -43 -38 -75 -23 -61 -25 -62 -97 -48 -24 5 -52
6 -62 4 -15 -4 -130 -178 -130 -197 0 -3 20 -6 44 -6 42 0 45 2 82 56 29 43
43 54 59 51 183 -39 179 -41 223 73 36 93 38 107 16 138 -19 27 -74 30 -97 4z"/>
</g>
</svg>
