<svg xmlns="http://www.w3.org/2000/svg" viewBox="0 0 100 125">
  <path d="M 53,68 C 46,63 46,57 53,54 C 60,51 60,45 53,42 C 46,39 47,34 51,30 L 53,28 L 47,27 M 53,28 L 55,33" 
        fill="none" stroke="#000000" stroke-width="3" stroke-linecap="round" stroke-linejoin="round"/>

  <path d="M 66,62 C 59,57 59,51 66,48 C 73,45 73,39 66,36 C 59,33 60,28 64,24 L 66,22 L 60,21 M 66,22 L 68,27" 
        fill="none" stroke="#000000" stroke-width="3" stroke-linecap="round" stroke-linejoin="round"/>

  <path d="M 79,56 C 72,51 72,45 79,42 C 86,39 86,33 79,30 C 72,27 73,22 77,18 L 79,16 L 73,15 M 79,16 L 81,21" 
        fill="none" stroke="#000000" stroke-width="3" stroke-linecap="round" stroke-linejoin="round"/>

  <g fill="#000000">
    <path d="M28.6,91.2c0,0-18.9-60.2-18-64.5s9.4-6,15.3-1.5s16,39.6,15.1,44.2S30.1,75.3,28.6,91.2z"/>
    <path d="M9.2,24.1c0,0-8.2-20.6-6.6-22.6S11.7-1,15.6,3.2c0,0,7.3,12.2,6.6,14.8s-1.5,3.1-3.4,3.1C17,21.1,11.4,20.4,9.2,24.1z"/>
    <path d="M94.7,93.2C99.4,84,97,75.5,91,70.6c-6.5-5.3-40.9-2-48.1,3.2c-11.1,8-11.1,19.4-11.1,19.4H94.7z"/>
  </g>
</svg>
