<?xml version="1.0" standalone="no"?>
<!DOCTYPE svg PUBLIC "-//W3C//DTD SVG 20010904//EN"
 "http://www.w3.org/TR/2001/REC-SVG-20010904/DTD/svg10.dtd">
<svg version="1.0" xmlns="http://www.w3.org/2000/svg"
 width="96.000000pt" height="96.000000pt" viewBox="0 0 96.000000 96.000000"
 preserveAspectRatio="xMidYMid meet">

<g transform="translate(0.000000,96.000000) scale(0.100000,-0.100000)"
fill="#000000" stroke="none">
<path d="M237 805 c-67 -64 -117 -120 -115 -128 6 -27 236 -239 255 -235 15 3
18 16 21 81 l3 77 167 0 c140 0 174 -3 207 -19 71 -32 115 -98 127 -191 2 -19
9 -25 28 -25 24 0 25 2 25 75 0 95 -24 159 -82 221 -73 78 -120 93 -310 97
l-162 4 -3 76 c-4 110 -15 108 -161 -33z m105 -47 l3 -53 185 -5 c190 -5 224
-12 275 -55 l20 -17 -20 7 c-63 22 -101 25 -272 23 l-188 -3 -5 -58 -5 -58
-70 71 -69 70 64 65 c35 36 68 65 72 65 4 0 8 -24 10 -52z"/>
<path d="M4 585 c-12 -31 3 -150 25 -200 29 -65 91 -128 155 -157 45 -20 70
-23 213 -26 l162 -4 3 -76 c3 -64 6 -77 21 -80 20 -4 256 215 257 238 0 23
-237 242 -257 238 -15 -3 -18 -16 -21 -81 l-3 -77 -165 0 c-180 0 -214 8 -267
58 -38 36 -58 75 -66 131 -5 38 -10 47 -29 49 -13 2 -25 -3 -28 -13z m691
-375 l-70 -71 -5 58 -5 58 -185 5 c-190 5 -224 12 -275 55 l-20 17 20 -7 c63
-22 101 -25 272 -23 l188 3 3 59 3 60 72 -72 72 -72 -70 -70z"/>
</g>
</svg>
