<?xml version="1.0" standalone="no"?>
<!DOCTYPE svg PUBLIC "-//W3C//DTD SVG 20010904//EN"
 "http://www.w3.org/TR/2001/REC-SVG-20010904/DTD/svg10.dtd">
<svg version="1.0" xmlns="http://www.w3.org/2000/svg"
 width="2048.000000pt" height="2048.000000pt" viewBox="0 0 2048.000000 2048.000000"
 preserveAspectRatio="xMidYMid meet">

<g transform="translate(0.000000,2048.000000) scale(0.100000,-0.100000)"
fill="#000000" stroke="none">
<path d="M10815 14084 c-498 -38 -616 -50 -875 -90 -881 -135 -1751 -426
-2466 -824 -409 -228 -746 -459 -1112 -763 l-144 -119 -331 -44 c-183 -24
-505 -69 -717 -99 -525 -74 -1343 -189 -1580 -220 -370 -49 -678 -143 -968
-295 -552 -290 -955 -754 -1205 -1390 -73 -186 -123 -417 -148 -685 -25 -271
39 -679 148 -955 125 -316 283 -556 537 -817 339 -349 752 -597 1193 -718 257
-71 470 -95 837 -95 l219 0 81 -73 c398 -359 817 -523 1296 -504 409 15 825
182 1230 493 l97 74 3269 0 3270 0 49 -51 c268 -274 632 -448 1054 -504 125
-17 378 -19 506 -5 136 16 276 47 404 90 287 96 482 218 726 455 l100 97 305
58 c168 32 422 83 565 114 143 30 346 73 450 94 107 22 234 56 290 77 497 185
917 621 1143 1191 247 620 229 1394 -50 2094 -266 667 -789 1177 -1421 1385
-148 49 -337 90 -459 101 -75 7 -80 8 -155 66 -432 332 -1046 702 -1562 943
-829 387 -1657 645 -2546 795 -559 94 -890 122 -1500 125 -264 1 -502 1 -530
-1z m1118 -1209 c1166 -88 2201 -366 3175 -854 404 -202 750 -421 1246 -790
95 -71 187 -136 204 -145 21 -11 58 -16 109 -16 158 -1 368 -20 443 -40 104
-29 242 -98 336 -168 243 -181 404 -450 483 -810 93 -420 62 -766 -96 -1074
-108 -211 -245 -336 -451 -414 -117 -44 -222 -64 -647 -124 -198 -28 -504 -71
-680 -96 -315 -45 -406 -65 -475 -107 -62 -38 -129 -108 -187 -196 -75 -114
-220 -258 -296 -294 -148 -71 -336 -90 -472 -47 -150 47 -244 123 -333 268
-33 54 -82 118 -109 143 -55 52 -149 100 -244 126 -61 17 -259 18 -3759 18
l-3695 0 -80 -28 c-158 -56 -230 -111 -331 -253 -37 -53 -91 -116 -118 -140
-113 -98 -273 -156 -436 -157 -116 0 -196 19 -307 73 -103 51 -182 123 -261
238 -101 147 -191 212 -350 253 -68 17 -113 19 -496 19 -455 0 -537 6 -714 50
-259 66 -480 209 -633 413 -146 193 -249 499 -249 737 0 162 59 395 150 596
106 235 325 455 566 569 151 72 234 92 582 140 180 25 563 79 852 120 289 41
674 95 855 120 1021 141 1248 175 1269 188 11 8 84 72 161 143 268 244 460
396 706 557 896 588 2032 931 3299 997 220 11 739 3 983 -15z"/>
<path d="M8924 12089 c-417 -37 -862 -228 -1181 -508 -493 -432 -649 -1120
-382 -1681 160 -336 462 -631 819 -802 188 -90 383 -150 603 -188 118 -20 154
-20 3596 -20 l3477 0 79 38 79 38 -519 311 c-286 170 -716 426 -955 568 -239
142 -671 398 -960 570 -716 425 -767 455 -774 455 -3 0 -6 -155 -6 -345 l0
-345 -1893 0 c-1644 0 -1900 2 -1950 15 -133 35 -259 126 -303 220 -30 63 -30
87 1 152 45 97 151 176 295 220 49 15 162 18 1075 23 1136 6 1051 0 1195 76
89 47 150 102 206 185 141 213 148 506 17 728 -54 90 -154 180 -255 230 -147
73 -119 71 -1206 70 -532 -1 -1008 -5 -1058 -10z"/>
</g>
</svg>
