<?xml version="1.0" standalone="no"?>
<!DOCTYPE svg PUBLIC "-//W3C//DTD SVG 20010904//EN"
 "http://www.w3.org/TR/2001/REC-SVG-20010904/DTD/svg10.dtd">
<svg version="1.0" xmlns="http://www.w3.org/2000/svg"
 width="2048.000000pt" height="2048.000000pt" viewBox="0 0 2048.000000 2048.000000"
 preserveAspectRatio="xMidYMid meet">

<g transform="translate(0.000000,2048.000000) scale(0.100000,-0.100000)"
fill="#000000" stroke="none">
<path d="M11235 14083 c-903 -19 -1668 -131 -2405 -352 -753 -224 -1427 -548
-2018 -969 -86 -61 -170 -122 -187 -135 l-29 -25 26 -33 c81 -106 416 -416
581 -538 101 -74 273 -191 282 -191 3 0 72 44 153 98 908 607 1907 930 3212
1038 283 24 875 24 1165 0 1000 -81 1966 -325 2830 -712 540 -242 1116 -599
1605 -995 80 -65 158 -123 173 -128 16 -6 102 -11 196 -11 104 0 201 -6 254
-15 397 -69 698 -370 822 -820 140 -511 104 -962 -104 -1320 -85 -145 -281
-318 -415 -366 -30 -10 -143 -35 -253 -54 -264 -48 -1202 -232 -1278 -251
-100 -25 -217 -65 -280 -97 -98 -48 -135 -85 -190 -188 -65 -122 -153 -212
-256 -263 -318 -156 -661 -70 -828 207 -62 103 -145 184 -232 225 -140 67 181
62 -3874 62 l-3680 0 -75 -21 c-166 -46 -262 -114 -370 -265 -147 -203 -333
-298 -552 -281 -86 7 -207 44 -276 84 -69 41 -157 127 -203 201 -91 146 -145
193 -282 245 l-82 31 -505 7 c-534 7 -566 10 -720 60 -128 43 -280 130 -397
228 -68 57 -200 215 -269 321 -139 215 -207 427 -206 645 1 231 117 594 252
789 59 86 205 230 300 298 89 63 256 142 365 173 101 28 525 95 1370 216 314
45 572 83 574 85 5 5 -36 52 -179 206 -208 225 -419 491 -563 711 -67 101 -81
117 -100 112 -33 -7 -160 -29 -492 -85 -784 -133 -891 -155 -1118 -230 -184
-60 -444 -186 -594 -287 -356 -239 -647 -576 -845 -974 -141 -285 -206 -504
-253 -847 -40 -296 0 -697 100 -999 141 -426 450 -846 827 -1126 320 -238 606
-384 933 -476 262 -73 399 -91 765 -98 l295 -6 70 -66 c251 -237 550 -389 925
-468 114 -25 145 -27 355 -28 202 0 244 3 345 23 349 71 640 220 950 486 l65
56 3258 0 3258 0 92 -85 c238 -220 462 -338 806 -425 176 -44 316 -61 496 -61
183 -1 296 11 445 47 359 85 617 227 895 496 l103 98 143 31 c79 17 416 86
749 155 711 146 794 171 1015 304 522 315 877 869 994 1550 63 368 48 719 -49
1117 -121 496 -360 944 -682 1278 -251 260 -487 423 -778 538 -192 76 -314
106 -555 137 -70 9 -80 13 -143 63 -236 188 -639 459 -949 638 -888 513 -1991
907 -3048 1089 -592 102 -1222 154 -1730 143z"/>
<path d="M4882 13929 c-378 -56 -623 -449 -510 -819 24 -79 218 -460 323 -636
253 -420 531 -794 832 -1119 721 -777 1518 -1313 2589 -1743 970 -389 2145
-612 3424 -651 331 -10 3802 8 3815 20 24 23 -61 77 -785 504 -913 538 -1240
731 -1465 863 -126 74 -333 196 -460 272 -361 215 -543 319 -549 312 -3 -3 -6
-162 -6 -354 l0 -348 -349 0 c-464 0 -712 14 -1156 66 -679 79 -1276 215
-1882 430 -711 252 -1379 644 -1925 1131 -508 453 -959 1054 -1229 1636 -69
149 -91 188 -141 241 -135 148 -336 223 -526 195z"/>
</g>
</svg>
