<?xml version="1.0" standalone="no"?>
<!DOCTYPE svg PUBLIC "-//W3C//DTD SVG 20010904//EN"
 "http://www.w3.org/TR/2001/REC-SVG-20010904/DTD/svg10.dtd">
<svg version="1.0" xmlns="http://www.w3.org/2000/svg"
 width="81.000000pt" height="82.000000pt" viewBox="0 0 81.000000 82.000000"
 preserveAspectRatio="xMidYMid meet">

<g transform="translate(0.000000,82.000000) scale(0.100000,-0.100000)"
fill="#000000" stroke="none">
<path d="M710 632 c-59 -18 -79 -91 -35 -132 48 -45 135 -11 135 54 0 47 -57
91 -100 78z"/>
<path d="M210 497 c0 -52 3 -53 118 -64 52 -4 72 -10 72 -20 0 -10 17 -5 60
19 33 18 60 36 60 40 0 7 -102 68 -114 68 -3 0 -6 -7 -6 -15 0 -23 -80 -19
-167 9 -22 7 -23 4 -23 -37z"/>
<path d="M26 441 c-27 -29 -28 -29 -10 -62 9 -19 33 -53 52 -77 27 -33 32 -45
23 -56 -9 -11 0 -17 47 -35 75 -27 84 -27 77 2 -3 12 -9 40 -13 62 -6 29 -13
40 -26 40 -24 0 -71 57 -93 112 -10 24 -21 43 -24 43 -3 0 -18 -13 -33 -29z"/>
<path d="M643 442 c-7 -4 -26 -38 -43 -75 -33 -72 -35 -73 -108 -57 -28 7 -49
7 -61 1 -16 -9 -121 -178 -121 -195 0 -3 18 -6 40 -6 37 0 44 5 83 55 23 30
47 55 53 55 6 0 33 -7 60 -15 65 -20 107 -19 127 3 24 27 78 172 72 193 -14
42 -67 64 -102 41z"/>
</g>
</svg>
