<?xml version="1.0" standalone="no"?>
<!DOCTYPE svg PUBLIC "-//W3C//DTD SVG 20010904//EN"
 "http://www.w3.org/TR/2001/REC-SVG-20010904/DTD/svg10.dtd">
<svg version="1.0" xmlns="http://www.w3.org/2000/svg"
 width="81.000000pt" height="82.000000pt" viewBox="0 0 81.000000 82.000000"
 preserveAspectRatio="xMidYMid meet">

<g transform="translate(0.000000,82.000000) scale(0.100000,-0.100000)"
fill="#000000" stroke="none">
<path d="M574 615 c-33 -14 -44 -32 -44 -71 0 -62 55 -94 111 -66 91 46 27
177 -67 137z"/>
<path d="M90 487 c0 -52 1 -52 118 -63 52 -5 72 -11 72 -21 0 -10 13 -6 48 13
78 45 78 46 16 83 -50 30 -58 32 -66 17 -13 -24 -102 -19 -170 9 -16 6 -18 1
-18 -38z"/>
<path d="M519 430 c-9 -5 -27 -36 -39 -67 -13 -32 -27 -62 -31 -67 -5 -5 -31
-4 -64 2 -39 8 -63 8 -76 2 -18 -10 -119 -171 -119 -190 0 -6 18 -10 40 -10
36 0 43 5 81 55 23 30 46 55 53 55 6 0 33 -7 60 -15 65 -20 109 -19 128 3 20
23 70 151 70 180 1 48 -59 78 -103 52z"/>
</g>
</svg>
