<?xml version="1.0" encoding="iso-8859-1"?>
<!-- Uploaded to: SVG Repo, www.svgrepo.com, Generator: SVG Repo Mixer Tools -->
<!DOCTYPE svg PUBLIC "-//W3C//DTD SVG 1.1//EN" "http://www.w3.org/Graphics/SVG/1.1/DTD/svg11.dtd">
<svg fill="#000000" version="1.1" id="Capa_1" xmlns="http://www.w3.org/2000/svg" xmlns:xlink="http://www.w3.org/1999/xlink" 
	 width="800px" height="800px" viewBox="0 0 556.564 556.564"
	 xml:space="preserve">
<g>
	<g>
		<path d="M384.542,155.537l69.32-61.849c-30.26-26.582-66.613-46.38-106.732-56.962c0.217,2.207,0.334,4.443,0.334,6.708v90.291
			C360.774,139.447,373.204,146.813,384.542,155.537z"/>
		<path d="M540.259,248.958c-5.627-34.113-17.742-66.031-35.105-94.41l-70.291,62.712c4.881,10.061,8.811,20.667,11.674,31.698
			H540.259z"/>
		<path d="M279.552,556.564c133.664,0,244.082-99.24,261.762-228.049h-93.127c-16.701,77.764-85.953,136.25-168.635,136.25
			c-95.113,0-172.498-77.381-172.498-172.498c0-71.011,43.143-132.123,104.582-158.542V43.434c0-2.265,0.116-4.501,0.333-6.708
			C98.746,66.592,15.251,169.665,15.251,292.27C15.254,438.234,133.584,556.564,279.552,556.564z"/>
		<path d="M279.552,0c-19.764,0-36.41,13.21-41.673,31.271c-1.126,3.862-1.76,7.938-1.76,12.164v81.885v141.764
			c0,23.987,19.443,43.435,43.433,43.435c23.99,0,43.434-19.447,43.434-43.435V125.319V43.434c0-4.226-0.633-8.299-1.758-12.164
			C315.964,13.21,299.317,0,279.552,0z"/>
	</g>
</g>
</svg>