<svg width="800px" height="800px" viewBox="0 0 24 24" fill="none" xmlns="http://www.w3.org/2000/svg">
  <path d="M7 9C7 9.55228 6.55228 10 6 10C5.44772 10 5 9.55228 5 9C5 8.44772 5.44772 8 6 8C6.55228 8 7 8.44772 7 9Z" fill="#ffffff"/>
  <path d="M7 12C7 12.5523 6.55228 13 6 13C5.44772 13 5 12.5523 5 12C5 11.4477 5.44772 11 6 11C6.55228 11 7 11.4477 7 12Z" fill="#ffffff"/>
  <path d="M10 12C10 12.5523 9.55228 13 9 13C8.44772 13 8 12.5523 8 12C8 11.4477 8.44772 11 9 11C9.55228 11 10 11.4477 10 12Z" fill="#ffffff"/>
  <path d="M10 9C10 9.55228 9.55228 10 9 10C8.44772 10 8 9.55228 8 9C8 8.44772 8.44772 8 9 8C9.55228 8 10 8.44772 10 9Z" fill="#ffffff"/>
  <path d="M13 9C13 9.55228 12.5523 10 12 10C11.4477 10 11 9.55228 11 9C11 8.44772 11.4477 8 12 8C12.5523 8 13 8.44772 13 9Z" fill="#ffffff"/>
  <path d="M13 12C13 12.5523 12.5523 13 12 13C11.4477 13 11 12.5523 11 12C11 11.4477 11.4477 11 12 11C12.5523 11 13 11.4477 13 12Z" fill="#ffffff"/>
  <path d="M16 9C16 9.55228 15.5523 10 15 10C14.4477 10 14 9.55228 14 9C14 8.44772 14.4477 8 15 8C15.5523 8 16 8.44772 16 9Z" fill="#ffffff"/>
  <path d="M16 12C16 12.5523 15.5523 13 15 13C14.4477 13 14 12.5523 14 12C14 11.4477 14.4477 11 15 11C15.5523 11 16 11.4477 16 12Z" fill="#ffffff"/>
  <path d="M19 9C19 9.55228 18.5523 10 18 10C17.4477 10 17 9.55228 17 9C17 8.44772 17.4477 8 18 8C18.5523 8 19 8.44772 19 9Z" fill="#ffffff"/>
  <path d="M19 12C19 12.5523 18.5523 13 18 13C17.4477 13 17 12.5523 17 12C17 11.4477 17.4477 11 18 11C18.5523 11 19 11.4477 19 12Z" fill="#ffffff"/>
  <path d="M16 5C18.8284 5 20.2426 5 21.1213 5.87868C22 6.75736 22 8.17157 22 11V13C22 15.8284 22 17.2426 21.1213 18.1213C20.2426 19 18.8284 19 19 18" stroke="#ffffff" stroke-width="1.5" stroke-linecap="round"/>
  <path d="M12 5 H8 C5.17157 5 3.75736 5 2.87868 5.87868 C2 6.75736 2 8.17157 2 11 V13 C2 15.8284 2 17.2426 2.87868 18.1213 C3.75736 19 5.17157 19 5 18" stroke="#ffffff" stroke-width="1.5" stroke-linecap="round"/>
  <path d="M7 16H17" stroke="#ffffff" stroke-width="1.5" stroke-linecap="round"/>

  <!-- Same content the nested <svg> held, with its centering offset baked in explicitly.
       translate y = (24 - 8.35) / 2 = 7.825  -> identical to the old render, but valid. -->
  <g transform="translate(0, 7.825)">
    <path d="M14.67 12.17L13.64 13.223C13.4298 13.4475 13.1759 13.6263 12.8937 13.7486C12.6116 13.8709 12.3075 13.934 12 13.934C11.6925 13.934 11.3884 13.8709 11.1063 13.7486C10.8241 13.6263 10.5702 13.4475 10.36 13.223L9.33 12.17" stroke="#ffffff" stroke-width="1.5" stroke-linecap="round" stroke-linejoin="round"/>
    <line x1="15.85" y1="10.95" x2="16.55" y2="10.23" stroke="#ffffff" stroke-width="1.3" stroke-linecap="round"/>
    <!--LEFT FADE — mirror: x_mirror = 24 - x, y unchanged-->
    <line x1="8.15" y1="10.95" x2="7.45" y2="10.23" stroke="#ffffff" stroke-width="1.3" stroke-linecap="round"/>
  </g>
</svg>
